<svg xmlns="http://www.w3.org/2000/svg" xmlns:xlink="http://www.w3.org/1999/xlink" xmlns:lucid="lucid" width="1760" height="1360"><g transform="translate(0 0)" lucid:page-tab-id="HowzCfBBZfS3"><path d="M0 0h1760v1360H0z" fill="#fff"/><path d="M320 242c0-1.1.9-2 2-2h1356c1.1 0 2 .9 2 2v956c0 1.1-.9 2-2 2H322c-1.1 0-2-.9-2-2z" fill="#f1f8e9"/><use xlink:href="#a" transform="matrix(1,0,0,1,336,256) translate(0 16.69921875)"/><use xlink:href="#b" transform="matrix(1,0,0,1,336,256) translate(56.302734375 16.69921875)"/><path d="M590.1 442c0-1.1.9-2 2-2h456c1.1 0 2 .9 2 2v236c0 1.1-.9 2-2 2h-456c-1.1 0-2-.9-2-2z" fill="#fff8e1" fill-opacity=".3"/><path d="M603.9 440h7.86m7.86 0h7.86m7.86 0h7.87m7.87 0h7.86m7.86 0h7.85m7.87 0h7.86m7.86 0h7.86m7.86 0h7.87m7.86 0h7.85m7.86 0h7.87m7.87 0H769m7.86 0h7.86m7.86 0h7.87m7.86 0h7.87m7.86 0h7.86m7.86 0h7.86m7.86 0h7.86m7.87 0h7.87m7.86 0h7.86m7.85 0h7.87m7.86 0h7.86m7.86 0h7.86m7.87 0h7.86m7.85 0h7.86m7.87 0h7.87m7.86 0h7.86m7.86 0h7.86m7.87 0h7.86m7.87 0h3.93l1.42.6.58 1.4v3.93m0 7.87v7.87m0 7.86v7.87m0 7.87v7.86m0 7.87v7.87m0 7.86v7.87m0 7.87v7.86m0 7.87v7.87m0 7.86v7.87m0 7.87v7.86m0 7.87v7.87m0 7.86V619m0 7.87v7.86m0 7.87v7.87m0 7.86v7.87m0 7.87V678l-.58 1.4-1.42.6h-3.93m-7.86 0h-7.85m-7.87 0h-7.86m-7.86 0H997m-7.86 0h-7.87m-7.86 0h-7.85m-7.86 0h-7.87m-7.87 0h-7.86m-7.86 0h-7.86m-7.86 0h-7.87m-7.86 0h-7.87m-7.86 0h-7.86m-7.86 0h-7.86m-7.86 0h-7.86m-7.87 0h-7.87m-7.86 0h-7.86m-7.85 0h-7.87m-7.86 0h-7.86m-7.86 0h-7.86m-7.87 0h-7.86m-7.85 0h-7.86m-7.87 0h-7.87m-7.86 0h-7.86m-7.86 0h-7.86m-7.87 0h-7.86m-7.87 0h-7.86m-7.86 0h-7.86m-7.86 0h-7.86m-7.86 0h-7.87m-7.87 0h-3.93l-1.4-.6-.6-1.4v-3.93m0-7.87v-7.87m0-7.86v-7.87m0-7.87v-7.86m0-7.87v-7.87m0-7.86v-7.87m0-7.87v-7.86m0-7.87v-7.87m0-7.86v-7.87m0-7.87v-7.86m0-7.87v-7.87m0-7.86V501m0-7.87v-7.86m0-7.87v-7.87m0-7.86v-7.87m0-7.87V442l.6-1.4 1.4-.6h3.93" stroke="#ef8d22" stroke-width="2" fill="none"/><use xlink:href="#c" transform="matrix(1,0,0,1,606.1018664999999,455.9999999999999) translate(116.13818359375 16.69921875)"/><use xlink:href="#d" transform="matrix(1,0,0,1,606.1018664999999,455.9999999999999) translate(194.32568359375 16.69921875)"/><use xlink:href="#e" transform="matrix(1,0,0,1,606.1018664999999,455.9999999999999) translate(254.19677734375 16.69921875)"/><use xlink:href="#f" transform="matrix(1,0,0,1,606.1018664999999,455.9999999999999) translate(297.56201171875 16.69921875)"/><path d="M570.1 382.24c0-1.1.9-2 2-2h1056c1.1 0 2 .9 2 2V998c0 1.1-.9 2-2 2h-1056c-1.1 0-2-.9-2-2z" fill="#ede7f6" fill-opacity=".19"/><path d="M582.1 380.24h4m8 0h4m8 0h4m8 0h4m8 0h4m8 0h4m8 0h4m8 0h4m8 0h4m8 0h4m8 0h4m8 0h4m8 0h4m8 0h4m8 0h4m8 0h4m8 0h4m8 0h4m8 0h4m8 0h4m8 0h4m8 0h4m8 0h4m8 0h4m8 0h4m8 0h4m8 0h4m8 0h4m8 0h4m8 0h4m8 0h4m8 0h4m8 0h4m8 0h4m8 0h4m8 0h4m8 0h4m8 0h4m8 0h4m8 0h4m8 0h4m8 0h4m8 0h4m8 0h4m8 0h4m8 0h4m8 0h4m8 0h4m8 0h4m8 0h4m8 0h4m8 0h4m8 0h4m8 0h4m8 0h4m8 0h4m8 0h4m8 0h4m8 0h4m8 0h4m8 0h4m8 0h4m8 0h4m8 0h4m8 0h4m8 0h4m8 0h4m8 0h4m8 0h4m8 0h4m8 0h4m8 0h4m8 0h4m8 0h4m8 0h4m8 0h4m8 0h4m8 0h4m8 0h4m8 0h4m8 0h4m8 0h4m8 0h4m8 0h4m8 0h4m8 0h4m8 0h4m8 0h2l1.42.58.58 1.42v2m0 8.06v4.02m0 8.05v4.03m0 8.04v4.03m0 8.05v4.02m0 8.05v4.02m0 8.05v4.02m0 8.04v4.02m0 8.05v4.04m0 8.05v4m0 8.06V505m0 8.03v4.03m0 8.05v4.03m0 8.05v4.03m0 8.06v4.02m0 8.05v4.02m0 8.05v4.03m0 8.05v4.02m0 8.05v4.03m0 8.05v4.02m0 8.05v4.02m0 8.05v4.03m0 8.05v4.02m0 8.05v4.03m0 8.04V674m0 8.05v4.02m0 8.04v4.03m0 8.05v4.02m0 8.05v4m0 8.06v4.03m0 8.04v4.02m0 8.05v4.04m0 8.05v4m0 8.06v4.02m0 8.05v4.03m0 8.05v4.03m0 8.05v4.03m0 8.05v4.03m0 8.05v4.02m0 8.05v4.03m0 8.05v4.02m0 8.05v4.02m0 8.05v4.03m0 8.05v4.02m0 8.05v4.03m0 8.04v4.03m0 8.05v4.02m0 8.05v4.02m0 8.05v4.02m0 8.04v4.02m0 8.05v4.04m0 8.05v2l-.58 1.4-1.42.6h-2m-8 0h-4m-8 0h-4m-8 0h-4m-8 0h-4m-8 0h-4m-8 0h-4m-8 0h-4m-8 0h-4m-8 0h-4m-8 0h-4m-8 0h-4m-8 0h-4m-8 0h-4m-8 0h-4m-8 0h-4m-8 0h-4m-8 0h-4m-8 0h-4m-8 0h-4m-8 0h-4m-8 0h-4m-8 0h-4m-8 0h-4m-8 0h-4m-8 0h-4m-8 0h-4m-8 0h-4m-8 0h-4m-8 0h-4m-8 0h-4m-8 0h-4m-8 0h-4m-8 0h-4m-8 0h-4m-8 0h-4m-8 0h-4m-8 0h-4m-8 0h-4m-8 0h-4m-8 0h-4m-8 0h-4m-8 0h-4m-8 0h-4m-8 0h-4m-8 0h-4m-8 0h-4m-8 0h-4m-8 0h-4m-8 0h-4m-8 0h-4m-8 0h-4m-8 0h-4m-8 0h-4m-8 0h-4m-8 0h-4m-8 0h-4m-8 0h-4m-8 0h-4m-8 0h-4m-8 0h-4m-8 0h-4m-8 0h-4m-8 0h-4m-8 0h-4m-8 0h-4m-8 0h-4m-8 0h-4m-8 0h-4m-8 0h-4m-8 0h-4m-8 0h-4m-8 0h-4m-8 0h-4m-8 0h-4m-8 0h-4m-8 0h-4m-8 0h-4m-8 0h-4m-8 0h-4m-8 0h-4m-8 0h-4m-8 0h-4m-8 0h-4m-8 0h-4m-8 0h-4m-8 0h-4m-8 0h-4m-8 0h-2l-1.4-.6-.6-1.4v-2m0-8.06v-4.03m0-8.04v-4.02m0-8.05v-4.03m0-8.05v-4.03m0-8.06v-4.02m0-8.05v-4.03m0-8.04v-4.03m0-8.05v-4.02m0-8.05v-4.03m0-8.05v-4.02m0-8.05v-4.02m0-8.05v-4.03m0-8.05v-4.02m0-8.05v-4.03m0-8.04v-4.02m0-8.05v-4.02m0-8.04v-4.03m0-8.05v-4.02m0-8.05v-4m0-8.06v-4.03m0-8.04v-4.02m0-8.05v-4.04m0-8.05v-4m0-8.06v-4.02m0-8.05v-4.03m0-8.05v-4.03m0-8.05V670m0-8.05v-4.03m0-8.05v-4.02m0-8.05v-4.03m0-8.05v-4.02m0-8.05v-4.02m0-8.05v-4.03m0-8.05v-4.02m0-8.05v-4.03m0-8.05v-4.02m0-8.05v-4.02m0-8.05v-4.02m0-8.05v-4.02m0-8.04v-4.03m0-8.04v-4.04m0-8.05v-4m0-8.06v-4.03m0-8.04v-4.02m0-8.05v-4.03m0-8.05v-4.03m0-8.06v-4.02m0-8.05v-4.03m0-8.04v-4.03m0-8.05v-4.02m0-8.05v-2l.6-1.43 1.4-.58h2" stroke="#0c7cba" stroke-width="2" fill="none"/><use xlink:href="#g" transform="matrix(1,0,0,1,586.1018664999999,396.2351922803996) translate(0 16.69921875)"/><use xlink:href="#h" transform="matrix(1,0,0,1,586.1018664999999,396.2351922803996) translate(57.0849609375 16.69921875)"/><use xlink:href="#i" transform="matrix(1,0,0,1,586.1018664999999,396.2351922803996) translate(110.8388671875 16.69921875)"/><path d="M590.1 762c0-1.1.9-2 2-2H1378c1.1 0 2 .9 2 2v236c0 1.1-.9 2-2 2H592.1c-1.1 0-2-.9-2-2z" fill="#fbe9e7"/><use xlink:href="#j" transform="matrix(1,0,0,1,606.1018664999999,775.9999999999999) translate(0 16.69921875)"/><path d="M80 88c0-4.42 3.58-8 8-8h836.75c4.42 0 8 3.58 8 8v25.16c0 4.4-3.58 8-8 8H88c-4.42 0-8-3.6-8-8z" stroke="#000" stroke-opacity="0" stroke-width="2" fill="#fff" fill-opacity="0"/><use xlink:href="#k" transform="matrix(1,0,0,1,84,84) translate(290.4741975308642 25.782777777777778)"/><use xlink:href="#l" transform="matrix(1,0,0,1,84,84) translate(457.85938271604937 25.782777777777778)"/><path d="M308.03 119.8H713M308.06 119.8h-1.03M712.97 119.8H714" stroke="#a9afb8" stroke-width="2" fill="none"/><path d="M80 129.16c0-4.42 3.58-8 8-8h837.7c4.43 0 8 3.58 8 8V132c0 4.42-3.57 8-8 8H88c-4.42 0-8-3.58-8-8z" stroke="#000" stroke-opacity="0" stroke-width="2" fill="#fff" fill-opacity="0"/><use xlink:href="#m" transform="matrix(1,0,0,1,84.0000000000004,125.15522395689881) translate(314.9869547325103 14.917037037037037)"/><use xlink:href="#n" transform="matrix(1,0,0,1,84.0000000000004,125.15522395689881) translate(348.85125514403296 14.917037037037037)"/><use xlink:href="#o" transform="matrix(1,0,0,1,84.0000000000004,125.15522395689881) translate(415.6025925925926 14.917037037037037)"/><use xlink:href="#p" transform="matrix(1,0,0,1,84.0000000000004,125.15522395689881) translate(428.0520781893004 14.917037037037037)"/><use xlink:href="#q" transform="matrix(1,0,0,1,84.0000000000004,125.15522395689881) translate(486.64539094650206 14.917037037037037)"/><use xlink:href="#r" transform="matrix(1,0,0,1,84.0000000000004,125.15522395689881) translate(503.6412757201646 14.917037037037037)"/><path d="M1248.2 928.04l-26.06-45.4c-2.04-3.55-2.04-7.94 0-11.5l26.05-45.4c2.02-3.54 5.8-5.74 9.87-5.74h52.07c4.07 0 7.84 2.2 9.88 5.75l26.05 45.4c2.03 3.55 2.03 7.94 0 11.5l-26.05 45.4c-2.04 3.54-5.8 5.74-9.88 5.74h-52.07c-4.07 0-7.85-2.2-9.88-5.76zm0 0z" fill="#0e62c2"/><path d="M1298.86 933.8l-38.9-39.18 6.04-8.16-.25-10.82 11.45-1.03-7.98-8.03 5.37-3.33 24.2-8.1 39.96 40.23-18.74 32.67c-2.04 3.55-5.8 5.75-9.88 5.75zm0 0" fill="#0851b0"/><path d="M1282.36 865.66h3.48v21.73h-3.48zM1265.18 873.65h2.55v14.98h-3.47V874.6c0-.53.4-.95.92-.95zm0 0zM1300.47 873.65h2.55c.5 0 .92.42.92.94v14.03h-3.47zm0 0z" fill="#fff"/><path d="M1265.18 873.65h37.84c.24 0 .47.1.65.28.18.17.27.4.27.64v2.58h-39.68v-2.58c0-.5.4-.92.92-.92zm0 0zM1268.97 854.92h30.26v11.98h-30.26zM1277.65 884.38h12.9v10.5h-12.9zM1259.55 885.18c0-.43.35-.8.8-.8h11.28c.45 0 .8.36.8.8v8.9c0 .44-.33.8-.8.8h-11.27c-.45 0-.8-.35-.8-.8zm0 0M1295.76 884.38h12.9v10.5h-12.9z" fill="#fff"/><use xlink:href="#s" transform="matrix(1,0,0,1,1220.1018665,938.79) translate(18.61328125 16.69921875)"/><use xlink:href="#t" transform="matrix(1,0,0,1,1220.1018665,938.79) translate(69.4931640625 16.69921875)"/><use xlink:href="#u" transform="matrix(1,0,0,1,1220.1018665,938.79) translate(24.5458984375 37.79296875)"/><path d="M726.46 871.1l-26.36-45.3c-2.05-3.64-5.64-5.7-9.86-5.8h-52.48c-4.22.1-7.8 2.16-9.86 5.8l-26.36 45.18c-2.05 3.64-2.05 7.74 0 11.26l26.36 45.52c2.05 3.75 5.5 5.92 9.86 6.03h52.48c4.22-.12 7.8-2.3 9.86-6.04l26.36-45.18c2.05-3.75 2.05-7.85 0-11.5z" stroke="#000" stroke-opacity="0" fill="#4285f4"/><path d="M693.4 862.42l-24.15.38-2.45 10.83 13.6 13.5.16 2.13-32-31.72L637.6 867l12.06 13.03-12.16 16.17 37.4 37.58h15.37c4.22-.15 7.77-2.3 9.88-6.02l21.78-37.6z" stroke="#000" stroke-opacity="0" fill-opacity=".07"/><path d="M678.56 896.1h-10.8l-23.5-29.07h-6.76v-9.5h11.02l23.5 29.07h6.54v-7.55l14.88 12.25-14.88 12.3v-7.5z" stroke="#000" stroke-opacity="0" fill="#fff"/><path d="M666.77 873.64l5.22-6.47h6.55v7.5l14.9-12.26-14.9-12.25v7.5h-10.8l-6.96 8.6 5.97 7.4zM649.63 880.1l-5.35 6.6h-6.78v9.5h11.03l7.05-8.7-5.95-7.4z" stroke="#000" stroke-opacity="0" fill="#fff"/><use xlink:href="#v" transform="matrix(1,0,0,1,600,938.79) translate(10.57568359375 15.60546875)"/><use xlink:href="#w" transform="matrix(1,0,0,1,600,938.79) translate(61.45556640625 15.60546875)"/><path d="M154.82 893.7h-69.7c-2.8 0-5.12-2.3-5.12-5.08v-45.65c0-2.8 2.32-5.08 5.12-5.08h69.7c2.8 0 5.1 2.28 5.1 5.07v45.6c0 2.84-2.23 5.13-5.02 5.13h-.08zM85.2 841.3c-.96 0-1.76.72-1.76 1.67v45.6c0 .94.8 1.72 1.76 1.72h69.7c.96 0 1.67-.8 1.67-1.74v-45.6c0-.94-.7-1.66-1.67-1.66zM154 915.9H85.95c-3.28-.02-5.92-2.66-5.92-5.93v-7.34c0-3.27 2.64-5.94 5.92-5.96H154c3.28 0 6 2.67 6 5.96v7.34c0 3.3-2.72 5.92-6 5.92zm-68.05-15.85c-1.36.02-2.48 1.17-2.48 2.58v7.34c0 1.4 1.12 2.52 2.48 2.54H154c1.44 0 2.56-1.14 2.56-2.57v-7.3c0-1.43-1.12-2.58-2.56-2.58z" stroke="#fff" stroke-opacity="0" fill="#232f3e"/><path d="M151.9 887.34H88.1c-.95 0-1.7-.78-1.7-1.68V845.9c0-.92.75-1.7 1.7-1.7h63.8c.95 0 1.7.78 1.7 1.7v39.76c0 .9-.75 1.68-1.7 1.68zm-62.06-3.4h60.32V847.6H89.84zM132.74 903.02h19.16c1.13 0 1.7.57 1.7 1.7v3.2c0 1.12-.57 1.68-1.7 1.68h-19.16c-1.12 0-1.7-.56-1.7-1.7v-3.18c0-1.13.58-1.7 1.7-1.7z" stroke="#fff" stroke-opacity="0" fill="#232f3e"/><use xlink:href="#x" transform="matrix(1,0,0,1,50,924.895) translate(0 16.69921875)"/><path d="M160.43 876.9H583.63" stroke="#333" fill="none"/><path d="M160.44 877.4h-.5v-1h.5" fill="#333"/><path d="M598.4 876.9l-14.27 4.63v-9.27z" stroke="#333" fill="#333"/><path d="M941.05 877.86h44.97c.26 0 .48-.22.48-.48 0-.27.22-.5.48-.5h16.14" stroke="#333" fill="none"/><path d="M941.06 878.36h-.1l-.83-1h.93" fill="#333"/><path d="M1017.88 876.9l-14.26 4.63v-9.27z" stroke="#333" fill="#333"/><path d="M1181 876.9h23.23" stroke="#333" fill="none"/><path d="M1181 877.4h-.5v-1h.5" fill="#333"/><path d="M1219 876.9l-14.27 4.63v-9.27z" stroke="#333" fill="#333"/><path d="M728.46 876.9h76.16" stroke="#333" fill="none"/><path d="M728.47 877.4h-.57l.1-.87-.02-.13h.5" fill="#333"/><path d="M819.4 876.9l-14.27 4.63v-9.27z" stroke="#333" fill="#333"/><path d="M1315.95 821.18v-92.16c0-6.63-5.38-12-12-12h-556c-6.6 0-12-5.38-12-12v-76.28" stroke="#333" fill="none"/><path d="M1316.45 821.97l-1-.6v-.2h1" fill="#333"/><path d="M735.96 613.97l4.64 14.27h-9.27z" stroke="#333" fill="#333"/><path d="M1315.95 821.18v-92.16c0-6.63-5.38-12-12-12h-356c-6.6 0-12-5.38-12-12v-76.28" stroke="#333" fill="none"/><path d="M1316.45 821.97l-1-.6v-.2h1" fill="#333"/><path d="M935.96 613.97l4.64 14.27h-9.27z" stroke="#333" fill="#333"/><path d="M160.43 876.9H368c6.62 0 12 5.37 12 12v176c0 6.62 5.36 12 12 12h191.66" stroke="#333" fill="none"/><path d="M160.44 877.4h-.5v-1h.5" fill="#333"/><path d="M598.43 1076.9l-14.27 4.63v-9.27z" stroke="#333" fill="#333"/><path d="M1519.66 500.28c-1.14.1-2.05.34-2.96.8l-39.44 19.43c-2.16 1.03-3.64 2.85-4.1 5.24l-9.77 43.76c-.47 2.05-.13 4.1 1 5.9.13.24.24.35.47.58l27.28 35c1.48 1.94 3.52 2.97 5.9 2.97h43.9c2.38 0 4.42-1.03 5.9-2.96l27.28-35.02c1.48-1.93 2.05-4.2 1.48-6.6l-9.77-43.64c-.45-2.4-1.93-4.2-4.1-5.23l-39.43-19.43c-1.25-.56-2.4-.9-3.64-.8z" stroke="#000" stroke-opacity="0" stroke-width="3.83" fill="#326ce5"/><path d="M1519.64 497.1c-1.2.13-2.16.37-3.12.85l-41.64 20.52c-2.28 1.08-3.84 3-4.32 5.52l-10.32 46.2c-.48 2.15-.12 4.3 1.08 6.23.12.24.24.36.48.6l28.8 36.96c1.56 2.03 3.72 3.1 6.24 3.1h46.32c2.52 0 4.68-1.07 6.24-3.1l28.8-36.97c1.56-2.04 2.16-4.44 1.56-6.84l-10.32-46.2c-.48-2.53-2.04-4.45-4.32-5.53l-41.64-20.52c-1.32-.6-2.52-.96-3.84-.84zm0 3.25c1.32-.12 2.4.12 3.6.72l39.6 19.44c2.04 1.1 3.48 2.9 4.08 5.3l9.72 43.67c.48 2.4 0 4.56-1.44 6.48L1547.84 611c-1.44 1.9-3.48 3-5.88 3h-43.92c-2.4 0-4.44-1.1-5.88-3l-27.36-35.05c-.12-.12-.24-.36-.36-.6-1.2-1.8-1.56-3.72-1.08-5.88l9.72-43.68c.6-2.4 1.92-4.2 4.08-5.3l39.6-19.43c.96-.48 1.8-.72 2.88-.84z" stroke="#000" stroke-opacity="0" stroke-width="3.83" fill="#fff"/><path d="M1508.98 532.62v5.44h38.76v-5.44zM1492.26 532.62v5.44h9.7v-5.44zM1523.07 547.14v5.43h24.67v-5.43zM1506.35 547.14v5.43h9.7v-5.43zM1523.07 561.64v5.45h24.67v-5.46zM1506.35 561.64v5.45h9.7v-5.46zM1508.98 576.16v5.45h38.76v-5.44zM1492.26 576.16v5.45h9.7v-5.44z" stroke="#000" stroke-opacity="0" stroke-width="3.77" fill="#fff"/><use xlink:href="#y" transform="matrix(1,0,0,1,1430,626.1103313417299) translate(38.337890625 16.60546875)"/><path d="M1315.95 821.18v-92.16c0-6.63-5.38-12-12-12h-116.1c-6.62 0-12-5.38-12-12v-76.28" stroke="#333" fill="none"/><path d="M1316.45 821.97l-1-.6v-.2h1" fill="#333"/><path d="M1175.86 613.97l4.64 14.27h-9.27z" stroke="#333" fill="#333"/><path d="M1347.24 862.58v-4.9m0-4.92v-1m0-4.9v-.98m0-4.9v-9.83m0-4.9v-1m0-4.9v-1m0-4.9v-9.83m0-4.9v-1m0-4.9v-.98m0-4.9v-9.84m0-4.9v-1m0-4.9v-.98m0-4.92v-9.82m0-4.9v-1m0-4.9v-1m0-4.9v-9.82m0-4.9v-1m0-4.9v-1m0-4.9v-9.82m0-4.9v-1m0-4.9v-1m0-4.9v-9.82m0-4.92v-.98m0-4.9v-1m0-4.9v-9.83m0-4.92v-.98m0-4.9v-1m0-4.9v-9.83m0-4.9v-1m0-4.9v-1m0-4.9v-9.82m0-4.9v-1m0-4.9v-1m0-4.9v-4.9M1349.24 863.17v-4.92m0-4.9v-1m0-4.9v-.98m0-4.9v-9.84m0-4.9v-1m0-4.9v-1m0-4.9v-9.82m0-4.9v-.98m0-4.9v-1m0-4.9v-9.83m0-4.92v-1m0-4.9v-.98m0-4.9v-9.83m0-4.9v-1m0-4.9v-1m0-4.9v-9.82m0-4.92v-.98m0-4.9v-1m0-4.9v-9.83m0-4.9v-1m0-4.9v-.98m0-4.92v-9.82m0-4.9v-1m0-4.9v-1m0-4.9v-9.82m0-4.9v-1m0-4.9v-1m0-4.9v-9.82m0-4.9v-1m0-4.9v-1m0-4.9v-9.82m0-4.92v-.98m0-4.9v-1m0-4.9v-4.9" stroke="#333" fill="none"/><path d="M1347.66 875.28l-4.04-14.45 9.26.4zM1348.83 558.73l4.04 14.44-9.26-.38z" stroke="#333" fill="#333"/><path d="M1020 826.9h160v100h-160z" stroke="#000" fill="#326ce5"/><path d="M1139.36 866.9h18.56v18.8h-18.56zM1028.64 854.4h43.04v43.8h-43.04z" stroke="#000" fill="#fff"/><path d="M1079.68 877.5h51.68" stroke="#000" fill="#326ce5"/><path d="M1121.44 872.5l9.92 5-9.92 3.8z" stroke="#000"/><use xlink:href="#z" transform="matrix(1,0,0,1,1020,931.895) translate(0 16.69921875)"/><use xlink:href="#A" transform="matrix(1,0,0,1,1020,931.895) translate(67.5966796875 16.69921875)"/><path d="M1035.4 76.42v87.1c0 9.23 20.38 16.48 45.38 16.48V76.42z" stroke="#000" stroke-opacity="0" stroke-width="1.32" fill="#3998c5"/><path d="M1080.3 180h.74c25.2 0 45.36-7.25 45.36-16.47v-87.1h-46.1z" stroke="#000" stroke-opacity="0" stroke-width="1.32" fill="#59b3d8"/><path d="M1126.4 76.42c0 8.93-20.38 16.42-45.4 16.42-24.94 0-45.6-7.5-45.6-16.42 0-8.93 20.4-16.42 45.42-16.42 24.93 0 45.6 7.5 45.6 16.42" stroke="#000" stroke-opacity="0" stroke-width="1.32" fill="#fff"/><path d="M1117.18 75.45c0 6.04-16.26 10.87-36.13 10.87-19.95 0-36.42-4.83-36.42-10.87 0-6.04 16.25-10.86 36.13-10.86 19.95 0 36.42 4.8 36.42 10.85" stroke="#000" stroke-opacity="0" stroke-width="1.32" fill="#7fb900"/><path d="M1109.42 81.97c4.85-1.9 7.52-4.1 7.52-6.52 0-6.03-16.27-10.86-36.16-10.86-19.88 0-36.15 4.82-36.15 10.85 0 2.42 2.9 4.83 7.52 6.52 6.58-2.66 17-4.1 28.63-4.1 10.2-.2 18.88 1.02 28.64 4.1" stroke="#000" stroke-opacity="0" stroke-width="1.32" fill="#b7d332"/><path d="M1106.5 141.17c-7.25 1.46-7.76-1-7.76-1 7.65-11.24 10.82-25.53 8.1-29.02-7.53-9.5-20.5-5.02-20.73-4.9h-.04c-1.7-.3-3.12-.47-4.82-.47-2.88-.17-5.32.6-7.64 2.28 0 0-23.16-9.5-22.1 11.9.24 4.6 6.58 34.56 14.1 25.47 2.8-3.27 5.45-6.07 5.45-6.07 1.42.94 2.9 1.3 4.6 1.17l.16-.12c-.05.48-.05.83 0 1.3-1.92 2.15-1.35 2.56-5.26 3.32-3.9.8-1.6 2.27-.1 2.62 3.38 1.1 6.84 0 8.93-2.85l-.1.45c1.12 2.28 1.46 4.5 1.18 7-.23 2.4-.1 4.43.45 6.76.63 1.58 1.25 5.26 6.35 4.2 3.8-.4 6.68-3.43 6.8-7.22.22-2.8.73-2.4.73-4.9l.4-1.22c.45-3.8.1-5.02 2.7-4.43l.64.05c2.15.06 4.02-.23 6-1 3.23-1.5 5.1-3.95 1.92-3.3z" stroke="#000" stroke-opacity="0" stroke-width="1.32" fill="#336790"/><path d="M1076 122.35c-.35-.18-.67-.28-1.05-.32-.55-.12-1.05-.05-1.54.2-.12.1-.2.23-.23.4-.07.47.65 1.37 1.54 1.5h.23c.68 0 1.25-.36 1.53-.97l.02-.08c.04-.16 0-.46-.5-.73zM1095.95 121.6c-.36-.07-.68-.08-1.04-.02-.74.1-1.47.44-1.4.88v.05c.26.57.8.9 1.4.9h.2c.4-.1.74-.27 1.03-.58.23-.2.36-.46.4-.77-.05-.2-.25-.37-.58-.45z" stroke="#000" stroke-opacity="0" stroke-width="1.32" fill="#fff"/><path d="M1108.65 141.08c-.34-1.08-1.85-.78-2.37-.66-5.05 1.07-6.5 0-6.8-.24 3.78-5.74 6.16-11.06 7.9-17.64 1.4-5.62 1.33-10.05-.06-11.84-3.25-4.07-7.65-6.28-12.8-6.34-3.08-.12-5.63.24-8.53 1.13l-.13.05h-.06l-.1.06c-1.57-.4-2.9-.6-4.52-.6-2.84-.1-5.28.6-7.65 2.17-2.5-.9-4.7-1.5-7.3-1.86-3.9-.7-7.5-.05-10.85 2-3.36 2.38-4.93 6.63-4.58 12.6.12 2.88 4.3 25.48 10.84 27.63 1.74.48 3.54-.23 4.47-1.73 2.32-2.8 4.53-5.08 5.05-5.68 1.22.66 2.43.96 3.82 1.02v.35l-.63.83c-.93 1.14-1.1 1.38-3.95 1.98-1.16.24-2.67.66-2.73 1.8 0 1.14 1.57 1.85 2.55 2.1 3.2 1 6.44.23 8.75-2.1-.23 4.72 0 8.73.87 13.46.76 2.75 3.13 4.6 6.03 4.6.7 0 1.34-.06 2.03-.24 3.83-.3 6.78-3.3 7.02-7.12.4-2.4 1.15-8.2 1.44-11.12.93.3 1.74.42 2.73.36 2.02.06 3.76-.3 5.67-1.02 1.8-.9 4.35-2.63 3.88-3.94zm-13.44 3.1c-.17 1.62-1.1 9.57-1.62 12.4-.1 3.27-2.66 5.85-5.97 6.03-2.66.9-5.55-.47-6.42-3.16-.06-.12-.06-.24-.12-.42-.87-5.45-1.04-10.1-.7-15.67 0-.06 0-.18-.05-.3-.05-.18-.05-.36-.1-.6-.3-.84-.82-1.5-1.7-1.9l-.05-.07c-.64-.36-1.4-.42-2.08-.12.23-1.02.46-1.8.87-2.75l.1-.35.53-1.26c1.1-2.4 2.55-5.57 1-12.86-.07-.12-.07-.18-.07-.3-.58-2.4-2.96-3.9-5.33-3.3-1.92.25-3.48.78-5.1 1.8.1-4.54 1.56-8.37 4.46-11.9 2.32-2.2 5.1-3.3 8.35-3.1 4.92 0 9.16 1.84 12.52 5.43 2.14 2.28 3.6 4.55 4.58 7.54-3.42-.4-5.74.2-6.9 1.8-2.38 3.47 1.4 10.3 3.25 13.58.34.54.63 1.13.75 1.37.52 1.2 1.1 2.1 1.97 3.1.23.3.4.55.64.9h-.2c-.97.3-2.77.8-2.6 4.14zm-33.15 2.1c-2.15-.72-4.58-5.08-6.84-12.32-1.56-4.84-2.5-9.03-3.06-14.1-.3-5.52 1.04-9.4 4-11.5 2.2-1.37 4.46-1.97 7-1.85 3.3.07 6.1.55 9.17 1.62-.1.12-.28.24-.4.42-5.1 5.1-4.93 13.88-4.93 14.24v.06c.24 2.87.18 5.38-.1 8.25-.47 2.8.34 5.43 2.37 7.52.3.3.52.48.8.72-.8.9-2.83 3.05-4.98 5.62-1.04 1.2-2.03 1.68-3 1.32zm6.08-15.07c.35-2.86.4-5.37.18-8.24 2.04-1.56 4.24-2.28 6.8-2.1 1.32.18 2.3 1.2 2.42 2.5 1.5 6.9.24 9.76-.86 12.1-.18.4-.4.9-.53 1.3l-.17.37c-.35.9-.64 1.73-.87 2.7-1.92 0-3.6-.73-4.94-2.1-1.68-1.8-2.37-4.07-2.03-6.52zm8.12 10.83c.06 0 .06-.06.12-.06.3-.48.92-.65 1.44-.36l.13.07c.93.48 1.33 1.68.87 2.64-1.9 2.64-5.16 3.65-8.23 2.64-.58-.12-1.1-.36-1.57-.72.53-.36 1.05-.54 1.63-.6 3.2-.66 3.65-1.08 4.7-2.45.28-.3.57-.66.98-1.14zm20.35-6.52c-.12-.28-.4-.76-.76-1.48h-.06c-1.56-2.8-5.27-9.4-3.3-12.14 1-1.14 2.38-1.62 3.83-1.38.76 0 1.34 0 2.1.12 0 .96-.12 1.8-.24 2.75-.23 1.02-.3 1.92-.35 2.93 0 1.2.07 2.16.25 3.3.58 2.57.34 4.9-.76 7.3-.3-.5-.47-.85-.7-1.4zm9.1-11.95c-1.74 5.7-3.83 10.23-6.96 15.3-.1-.17-.23-.35-.4-.52l-.12-.24h-.06c1.5-2.77 1.9-5.64 1.22-8.7-.18-1.06-.23-1.96-.23-3.04.05-1 .1-1.8.3-2.8.22-1.14.28-2.16.28-3.36 0-.17.05-.3 0-.4-1.74-6.3-5.8-10.96-11.83-13.47 10.84-2.63 16.4 2.7 18.32 5.14 1.45 1.86 1.27 6.16-.52 12.08zm-7.48 17.77c.17 0 .3-.06.46-.12.12.06.24.18.35.23 2.5 1.02 5 1.14 7.54.3.23-.06.46-.12.7-.12-.88.97-1.8 1.7-3.08 2.17-2.5 1.07-4.88 1.25-7.5.54-.16-.05-.16-.1-.16-.1-.18-2.35.75-2.6 1.68-2.88z" stroke="#000" stroke-opacity="0" stroke-width="1.32" fill="#fff"/><use xlink:href="#B" transform="matrix(1,0,0,1,1005.406079639366,188.9999999999999) translate(24.049999999999997 14.4)"/><use xlink:href="#C" transform="matrix(1,0,0,1,1005.406079639366,188.9999999999999) translate(106 14.4)"/><use xlink:href="#D" transform="matrix(1,0,0,1,1005.406079639366,188.9999999999999) translate(26.85 36)"/><use xlink:href="#E" transform="matrix(1,0,0,1,1005.406079639366,188.9999999999999) translate(44.55 57.6)"/><path d="M736 501.3V183.7c0-6.62 5.37-12 12-12h276.95" stroke="#333" fill="none"/><path d="M736.5 502.1l-1-.57v-.23h1" fill="#333"/><path d="M1039.72 171.7l-14.27 4.64v-9.27z" stroke="#333" fill="#333"/><path d="M936 501.3V183.7c0-6.62 5.37-12 12-12h76.95" stroke="#333" fill="none"/><path d="M936.5 502.1l-1-.57v-.23h1" fill="#333"/><path d="M1039.72 171.7l-14.27 4.64v-9.27z" stroke="#333" fill="#333"/><g filter="url(#F)"><path d="M748 771c0-1.1.9-2 2-2h256c1.1 0 2 .9 2 2v56c0 1.1-.9 2-2 2H750c-1.1 0-2-.9-2-2z" fill="#fff"/><path d="M778 779c-5.52 0-10.24 1.95-14.14 5.86-3.9 3.9-5.86 8.62-5.86 14.14 0 5.52 1.95 10.24 5.86 14.14 3.9 3.9 8.62 5.86 14.14 5.86 5.52 0 10.24-1.95 14.14-5.86 3.9-3.9 5.86-8.62 5.86-14.14 0-5.52-1.95-10.24-5.86-14.14-3.9-3.9-8.62-5.86-14.14-5.86zm-7.5 9.4c2.34-1.24 4.84-1.87 7.5-1.87s5.16.62 7.5 1.87c.17.04.3.13.4.28.1.16.12.32.08.5-.04.16-.13.3-.28.4-.16.08-.32.1-.5.07-.1 0-.2-.02-.28-.07-2.17-1.18-4.5-1.77-6.96-1.77s-4.8.6-6.96 1.78c-.16.06-.32.06-.48 0-.17-.06-.28-.18-.35-.34-.07-.16-.07-.32 0-.48.06-.16.17-.28.33-.35zm5.2 22.65c-.13.13-.28.18-.46.2-.1 0-.16-.03-.24-.06-.08-.04-.14-.1-.2-.15-1.02-.96-1.85-2.06-2.5-3.3-.9-1.7-1.34-3.5-1.3-5.43.04-1.9.75-3.5 2.1-4.8 1.38-1.3 3-1.96 4.9-1.93 1.9-.05 3.55.58 4.93 1.9 1.38 1.3 2.1 2.92 2.15 4.82 0 .18-.06.32-.2.45-.1.12-.26.18-.43.18-.17 0-.32-.06-.44-.18-.12-.13-.18-.27-.18-.45-.05-1.56-.64-2.87-1.78-3.94-1.13-1.07-2.48-1.6-4.04-1.54-1.56-.05-2.9.47-4.04 1.54-1.14 1.07-1.73 2.38-1.78 3.94-.04 1.7.35 3.3 1.16 4.82.6 1.13 1.38 2.14 2.3 3.02.13.12.2.27.2.44 0 .18-.06.32-.18.45zm10-2.27c-.5.1-1 .14-1.5.14-1.42.04-2.7-.33-3.9-1.1-.9-.62-1.63-1.4-2.16-2.38-.53-.97-.8-2-.8-3.12 0-.17.06-.3.18-.44.12-.12.27-.18.44-.18.18 0 .32.06.44.18.13.13.2.27.2.44 0 .9.22 1.74.64 2.53.43.8 1.02 1.43 1.77 1.93.98.62 2.04.92 3.2.88.4 0 .82-.05 1.24-.12.17-.04.32 0 .47.1.15.1.24.22.28.4.03.17 0 .32-.1.47-.1.15-.23.24-.4.28zm-1.25-2.8c-.67.03-1.3-.12-1.9-.45-.6-.32-1.06-.77-1.4-1.35-.35-.57-.54-1.2-.55-1.87-.06-.66-.35-1.22-.84-1.67-.5-.45-1.1-.67-1.76-.67-.67 0-1.26.22-1.76.67-.5.45-.78 1-.84 1.68 0 1.07.2 2.1.6 3.07.4.97.98 1.84 1.74 2.58 1.12 1.15 2.46 1.9 4 2.3.18.05.3.14.38.3.1.14.1.3.07.46-.04.15-.12.26-.22.35-.1.1-.24.13-.38.14h-.16c-1.8-.44-3.35-1.32-4.65-2.64-.88-.86-1.55-1.86-2.02-3-.48-1.12-.7-2.3-.7-3.52 0-1.07.37-1.97 1.12-2.72.76-.76 1.66-1.13 2.72-1.13 1.07 0 1.98.36 2.73 1.12.75.75 1.13 1.65 1.13 2.72.06.66.34 1.22.84 1.68.5.45 1.08.68 1.76.68.67 0 1.25-.23 1.75-.68.5-.46.78-1.02.85-1.68-.08-2.42-1-4.46-2.74-6.12-1.74-1.67-3.82-2.48-6.24-2.43-1.74-.04-3.36.4-4.85 1.3-1.5.9-2.63 2.14-3.4 3.7-.53 1.1-.77 2.26-.75 3.5 0 1.54.28 3.05.84 4.5.04.1.05.2.03.32 0 .1-.06.2-.13.3-.07.08-.16.14-.26.18-.16.06-.32.06-.48-.02-.16-.07-.26-.18-.32-.34-.62-1.62-.92-3.28-.92-5-.02-1.42.26-2.77.85-4.05.9-1.77 2.2-3.16 3.9-4.18 1.7-1.02 3.52-1.52 5.5-1.5 2.77-.06 5.16.86 7.18 2.77 2 1.9 3.05 4.24 3.13 7 0 .7-.18 1.32-.54 1.9-.35.58-.83 1.02-1.42 1.34-.6.32-1.24.47-1.92.45zm4.56-10c-.08.07-.18.1-.3.12-.1 0-.2 0-.3-.05-.1-.05-.2-.12-.26-.2-1.12-1.6-2.53-2.8-4.24-3.7-1.85-.9-3.8-1.37-5.88-1.37-2.06 0-4.02.46-5.87 1.38-1.73.9-3.14 2.15-4.25 3.75-.05.1-.12.16-.2.2-.1.06-.2.08-.3.08-.12 0-.24-.04-.35-.12-.1-.06-.16-.15-.2-.25-.06-.1-.07-.2-.06-.3 0-.12.04-.22.1-.3 1.22-1.76 2.8-3.12 4.7-4.1 2.02-1 4.16-1.52 6.43-1.52 2.27 0 4.42.5 6.45 1.52 1.9.97 3.46 2.32 4.68 4.06.1.14.1.3.08.46-.03.16-.12.28-.25.38z" fill="#757575"/><use xlink:href="#G" transform="matrix(1,0,0,1,808.0000000000001,788.9999999999999) translate(0 12.57595486111111)"/><use xlink:href="#H" transform="matrix(1,0,0,1,808.0000000000001,788.9999999999999) translate(90.83148871527777 12.57595486111111)"/><use xlink:href="#I" transform="matrix(1,0,0,1,808.0000000000001,788.9999999999999) translate(133.41102430555554 12.57595486111111)"/></g><path d="M726.46 1071.1l-26.36-45.3c-2.05-3.64-5.64-5.7-9.86-5.8h-52.48c-4.22.1-7.8 2.16-9.86 5.8l-26.36 45.18c-2.05 3.53-2.05 7.62 0 11.26l26.36 45.52c2.05 3.75 5.5 5.92 9.86 6.03h52.48c4.22-.12 7.8-2.3 9.86-6.04l26.36-45.18c2.05-3.75 2.05-7.85 0-11.5z" stroke="#000" stroke-opacity="0" fill="#4285f4"/><path d="M696 1058.57l-12.35-3-1.85 1.92 9.4 9.4.1 12.8-19.45-19.3H656l-9.97-9.9-10.5 8.82-3.6 35.8 39 38.6h19.35c4.25-.16 7.84-2.32 9.87-5.98l23.97-41.37z" stroke="#000" stroke-opacity="0" fill-opacity=".07"/><path d="M656 1069.58l8 4.58 8-4.58v-9.15l-8-4.57-8 4.57v9.15zM667 1088.26l8 4.58 7.98-4.58v-9.15l-8-4.56-8 4.57v9.16zM645 1088.5l8 4.58 8-4.57v-9.14l-8-4.58-8 4.58v9.15z" stroke="#000" stroke-opacity="0" fill="#fff"/><path d="M646 1057.53l-7.98 4.6v29.5l8 4.6v7l-14-8v-36.7l14-8v7zM681.98 1057.53l8 4.6v29.5l-8 4.6v7l14-8v-36.7l-14-8v7z" stroke="#000" stroke-opacity="0" fill="#fff"/><use xlink:href="#J" transform="matrix(1,0,0,1,600,1138.79) translate(0 16.69921875)"/><use xlink:href="#K" transform="matrix(1,0,0,1,600,1138.79) translate(0 37.79296875)"/><path d="M1206.46 551.3l-26.36-45.28c-2.05-3.64-5.64-5.7-9.86-5.8h-52.48c-4.22.1-7.8 2.16-9.86 5.8l-26.36 45.17c-2.05 3.52-2.05 7.62 0 11.26l26.36 45.5c2.05 3.77 5.5 5.93 9.86 6.05h52.48c4.22-.1 7.8-2.27 9.86-6.03l26.36-45.17c2.05-3.76 2.05-7.85 0-11.5z" stroke="#000" stroke-opacity="0" fill="#4285f4"/><path d="M1176.67 556.24l-12.17 6.27-5.55-5.38-21.45-.6-9.93-9.9-12.42 10.5 8.44 13 44.3 43.86h2.4c4.22-.14 7.78-2.3 9.85-6l17.8-30.65z" stroke="#000" stroke-opacity="0" fill-opacity=".07"/><path d="M1159.02 557.1l-2.85-2.84h-24.35l-2.85 2.83 2.85 2.8h24.35l2.85-2.8zM1127.6 566.1l-9.1-9 9.07-9c.43-.43.43-1.1 0-1.52l-2.5-2.47c-.43-.42-1.1-.42-1.52 0l-12.38 12.23c-.43.42-.43 1.1 0 1.54l2.5 2.48 9.84 9.74c.44.42 1.14.42 1.56 0l2.5-2.5c.44-.4.44-1.1 0-1.5M1160.4 548.1l9.1 9-9.08 9c-.43.43-.43 1.1 0 1.52l2.5 2.48c.43.43 1.1.43 1.54 0l12.35-12.25c.44-.4.44-1.1 0-1.52l-2.5-2.48-9.84-9.75c-.43-.42-1.1-.42-1.54 0l-2.5 2.48c-.43.43-.43 1.1 0 1.52" stroke="#000" stroke-opacity="0" fill="#fff"/><use xlink:href="#L" transform="matrix(1,0,0,1,1080,619.0053313417299) translate(0 16.69921875)"/><path d="M766.57 551.3l-26.37-45.28c-2.05-3.64-5.63-5.7-9.86-5.8h-52.48c-4.22.1-7.8 2.16-9.85 5.8l-26.36 45.17c-2.05 3.52-2.05 7.62 0 11.26l26.37 45.5c2.05 3.77 5.5 5.93 9.86 6.05h52.48c4.23-.1 7.8-2.27 9.86-6.03l26.37-45.17c2.04-3.76 2.04-7.85 0-11.5z" stroke="#000" stroke-opacity="0" fill="#4285f4"/><path d="M736.77 556.24l-12.17 6.27-5.55-5.38-21.44-.6-9.93-9.9-12.42 10.5 8.44 13 44.3 43.86h2.4c4.22-.14 7.78-2.3 9.85-6l17.8-30.65z" stroke="#000" stroke-opacity="0" fill-opacity=".07"/><path d="M719.12 557.1l-2.85-2.84h-24.35l-2.85 2.83 2.85 2.8h24.35l2.85-2.8zM687.7 566.1l-9.1-9 9.07-9c.43-.43.43-1.1 0-1.52l-2.5-2.47c-.43-.42-1.1-.42-1.52 0l-12.38 12.23c-.43.42-.43 1.1 0 1.54l2.5 2.48 9.84 9.74c.44.42 1.14.42 1.57 0l2.5-2.5c.43-.4.43-1.1 0-1.5M720.5 548.1l9.1 9-9.08 9c-.43.43-.43 1.1 0 1.52l2.5 2.48c.43.43 1.1.43 1.54 0l12.36-12.25c.42-.4.42-1.1 0-1.52l-2.5-2.48-9.86-9.75c-.43-.42-1.1-.42-1.54 0l-2.5 2.48c-.43.43-.43 1.1 0 1.52" stroke="#000" stroke-opacity="0" fill="#fff"/><use xlink:href="#M" transform="matrix(1,0,0,1,640.1018664999999,619.0053313417299) translate(0 16.69921875)"/><path d="M966.57 551.3l-26.37-45.28c-2.05-3.64-5.63-5.7-9.86-5.8h-52.48c-4.22.1-7.8 2.16-9.85 5.8l-26.36 45.17c-2.05 3.52-2.05 7.62 0 11.26l26.37 45.5c2.05 3.77 5.5 5.93 9.86 6.05h52.48c4.23-.1 7.8-2.27 9.86-6.03l26.37-45.17c2.04-3.76 2.04-7.85 0-11.5z" stroke="#000" stroke-opacity="0" fill="#4285f4"/><path d="M936.77 556.24l-12.17 6.27-5.55-5.38-21.44-.6-9.93-9.9-12.42 10.5 8.44 13 44.3 43.86h2.4c4.22-.14 7.78-2.3 9.85-6l17.8-30.65z" stroke="#000" stroke-opacity="0" fill-opacity=".07"/><path d="M919.12 557.1l-2.85-2.84h-24.35l-2.85 2.83 2.85 2.8h24.35l2.85-2.8zM887.7 566.1l-9.1-9 9.07-9c.43-.43.43-1.1 0-1.52l-2.5-2.47c-.43-.42-1.1-.42-1.52 0l-12.38 12.23c-.43.42-.43 1.1 0 1.54l2.5 2.48 9.84 9.74c.44.42 1.14.42 1.57 0l2.5-2.5c.43-.4.43-1.1 0-1.5M920.5 548.1l9.1 9-9.08 9c-.43.43-.43 1.1 0 1.52l2.5 2.48c.43.43 1.1.43 1.54 0l12.36-12.25c.42-.4.42-1.1 0-1.52l-2.5-2.48-9.86-9.75c-.43-.42-1.1-.42-1.54 0l-2.5 2.48c-.43.43-.43 1.1 0 1.52" stroke="#000" stroke-opacity="0" fill="#fff"/><use xlink:href="#N" transform="matrix(1,0,0,1,840.1018664999999,619.0053313417299) translate(0 16.69921875)"/><path d="M695.86 948.52v56.68" stroke="#333" fill="none"/><path d="M695.86 933.76l4.64 14.26h-9.27zM695.86 1019.96l-4.63-14.26h9.27z" stroke="#333" fill="#333"/><path d="M980.1 709h240v60h-240z" fill="none"/><use xlink:href="#O" transform="matrix(1,0,0,1,985.1018664999999,713.9999999999999) translate(60.8 28.6)"/><use xlink:href="#P" transform="matrix(1,0,0,1,985.1018664999999,713.9999999999999) translate(100.65 28.6)"/><path d="M1391.2 564.54h9.93v-9.97h-3.4v3.83c-3.3-2.85-7-4.23-11.37-4.23-9.57.02-17.34 7.82-17.34 17.46h3.4c0-7.75 6.26-14.04 14-14.04 3.57 0 6.6 1.16 9.25 3.52h-4.46zM1386.4 585.68c-3.57 0-6.58-1.15-9.25-3.53h4.46v-3.4h-9.9v9.94h3.4v-3.82c3.3 2.87 7 4.25 11.36 4.23 9.6 0 17.37-7.84 17.34-17.47h-3.4c0 7.76-6.26 14.05-14 14.05z" stroke="#fff" stroke-opacity="0" fill="#3f8624"/><path d="M1415.54 547.2c-.64-5.2-3.36-8.98-7.6-10.25-3.04-.9-6-.32-8.48 1.7-1.2-2.7-2.64-4.83-4.8-6.96-6.24-6.54-15.28-8.4-23.6-4.73-7.68 3.66-12.32 10.88-12.56 19.48v1.17c-6.56 1.96-10.72 7.96-10.4 14.8v1.23c.72 8.33 7.52 14.6 15.84 14.5h1.68v-3.4h-1.68c-6.48.1-11.92-4.84-12.4-11.3v-1.02c-.4-5.8 3.44-10.78 9.12-11.95.88-.2 1.44-1 1.28-1.85-.08-.8-.08-1.44-.08-2.23.16-7.17 4-13.22 10.48-16.35 6.96-3.13 14.72-1.6 19.92 3.98 2.4 2.44 3.92 5 4.96 8.17.16.37.32.64.64.85.72.53 1.84.37 2.4-.37 1.52-2.28 4.16-3.18 6.8-2.44 2.96.85 4.88 3.87 5.2 8.07-.08.96.48 1.8 1.36 1.97 3.36.6 11.04 2.92 11.04 12.26 0 11.15-10.8 12.2-11.04 12.27h-4.72v3.4h4.88c4.96-.43 14.32-4.15 14.32-15.67 0-9.13-6.24-13.8-12.56-15.34z" stroke="#fff" stroke-opacity="0" fill="#3f8624"/><path d="M1405.55 576.62h-34.44l-12.68-.6-5.76-4.17-2.92-5.4-.54-5.42 1.84-5.36 5.08-5.36 3.76-1.17 1.23-10.12 7-8.2 9.62-3.35 9.84 1.57 5.92 4.1 4.3 6.97 2.62.28 4.6-1.67 5.85 1.53 3.08 8.3 8.38 4.1 3.54 6.43.23 5.86-2.76 6.63-6.76 5.07z" stroke="#fff" stroke-opacity="0" stroke-width="1.13" fill="#fff" fill-opacity="0"/><path d="M1374.26 573.73h27.14l-2.05 7.1-5.1 4.93-7.4 1.86-7.24-2-5.48-3.96z" stroke="#fff" stroke-opacity="0" stroke-width=".38" fill="#fff" fill-opacity="0"/><g><use xlink:href="#Q" transform="matrix(1,0,0,1,1318.1018665,598.1103313417299) translate(0 16.69921875)"/><use xlink:href="#R" transform="matrix(1,0,0,1,1318.1018665,598.1103313417299) translate(0 37.79296875)"/></g><path d="M482.8 497.1h-97.62c-2.9 0-5.18 2.3-5.18 5.17v78.84c0 3 2.27 5.3 5.18 5.3h25.16c1.94 6.35 8.1 10.67 15.33 10.67 8.64 0 15.87-7.2 15.87-15.96 0-8.63-7.23-15.83-15.87-15.83-7.23 0-13.28 4.32-15.33 10.68h-19.97v-56.28h87.13v56.28h-16.4c-2.28-17.4-17.6-30.96-35.54-30.96-6.04 0-12.1 1.8-17.38 4.3l4.97 9.25c3.45-2.04 8.1-3.12 12.1-3.12 13.92 0 25.7 11.52 25.7 25.68 0 14.17-11.57 25.7-25.7 25.7-4.33 0-8.32-1.2-12.1-3.25l-4.97 9.24c5.3 2.87 11.34 4.3 17.38 4.3 17.93 0 33.26-13.55 35.53-30.83h21.7c2.8 0 5.17-2.4 5.17-5.28v-78.73c0-2.52-2.27-5.16-5.18-5.16z" stroke="#000" stroke-opacity="0" fill="#3276bc"/><g><use xlink:href="#S" transform="matrix(1,0,0,1,350,626.11033134173) translate(24.624999999999993 14.4)"/><use xlink:href="#T" transform="matrix(1,0,0,1,350,626.11033134173) translate(102.475 14.4)"/></g><path d="M487.97 555.75h72.13M487.97 557.75h72.13M488.47 541.75v30" stroke="#ef8d22" fill="none"/><path d="M588.6 556.75c0 8.28-6.7 15-15 15-8.28 0-15-6.72-15-15 0-8.28 6.72-15 15-15 8.3 0 15 6.72 15 15z" stroke="#ef8d22" fill="#fff"/><path d="M940.96 878.35L880.6 806.1l-60.6 72 60.36 49.2 60.6-48.95zM872.8 903.3v-30.6c-5.64-3-9.36-9-9.36-16.2 0-9.83 7.56-18 16.92-18 9.24 0 16.8 8.17 16.8 18 0 6.85-3.96 13.2-9.36 15.85v6l-.24.36-5.76 6 6 6.25v.36l-5.4 6 5.16 5.65-7.56 7.92-7.2-7.56z" stroke="#000" stroke-opacity="0" fill="#0078d7"/><path d="M886.6 851.7c0-3-3.6-5.4-6.24-5.4-3 0-6 2.05-6 5.05s3 6.36 6 6.36c2.64.25 6.24-2.75 6.24-6z" stroke="#000" stroke-opacity="0" fill="#0078d7"/><g><use xlink:href="#U" transform="matrix(1,0,0,1,790,935.1058108108108) translate(29.574999999999996 14.4)"/><use xlink:href="#V" transform="matrix(1,0,0,1,790,935.1058108108108) translate(92.57499999999999 14.4)"/></g><path d="M1357.84 125.54l-52.44-52.8c-3-2.88-7.68-2.88-10.44 0l-11.52 11.28 13.68 13.68c.84-.36 2.04-.6 3.24-.6 5.04 0 9.12 4.08 9.12 9.12 0 1.2-.24 2.4-.6 3.36l13.32 13.32c.84-.36 2.16-.6 3.24-.6 5.04 0 9.24 4.08 9.24 9.12 0 5.04-4.2 9.24-9.24 9.24s-9.12-4.2-9.12-9.24c0-1.2.24-2.4.6-3.24l-12.48-12.48v32.64c3 1.44 5.04 4.68 5.04 8.04 0 5.04-4.08 9.12-9.12 9.12-5.04 0-9.24-4.08-9.24-9.12 0-3.96 2.4-7.2 6-8.64V114.5c-3.6-1.08-6-4.68-6-8.52 0-1.2.36-2.4.6-3.24l-13.56-13.68-35.88 36.48c-3 2.88-3 7.68 0 10.32l52.44 52.44c3 3 7.68 3 10.32 0l52.44-52.44c3.36-2.88 3.36-7.68.36-10.32z" stroke="#000" stroke-opacity="0" fill="#0078d7"/><g><use xlink:href="#W" transform="matrix(1,0,0,1,1210,199.5776119785658) translate(36.599999999999994 14.4)"/><use xlink:href="#X" transform="matrix(1,0,0,1,1210,199.5776119785658) translate(64.55 14.4)"/></g><path d="M1427.65 557.1h19.13" stroke="#333" fill="none"/><path d="M1425.04 557.6h-.9v-1h.36m3.16 1h-.3l-.42-1h.72" fill="#333"/><path d="M1461.54 557.1l-14.26 4.65v-9.27z" stroke="#333" fill="#333"/><path d="M1520 496.64v-5.05m0-5.05v-1m0-5.06v-1.02m0-5.04v-10.1m0-5.04v-1m0-5.05v-1m0-5.06v-10.1m0-5.04v-1m0-5.06v-1m0-5.05v-10.1m0-5.04v-1m0-5.04v-1m0-5.05v-10.1m0-5.03v-1m0-5.06v-1m0-5.04v-10.1m0-5.04v-1m0-5.05v-1m0-5.05v-10.1m0-5.04v-1m0-5.05v-1m0-5.06v-10.1m0-5.03v-1m0-5.06v-1m0-5.05v-10.1m0-5.04v-1.02m0-5.04v-1m0-5.06v-10.1m0-5.03v-1m0-5.06v-1.02m0-5.04v-10.1m0-5.04v-1m0-5.05v-1m0-5.06v-10.1m0-5.04v-1m0-5.06v-1m0-5.05v-10.1m0-5.04v-1m0-5.04v-1m0-5.06v-5.04l-.4-3.12-.14-.3m-1.5-3.13l-.4-.55m-2.46-2.44l-.55-.4m-3.12-1.5l-.32-.13-3.1-.4h-4.87m-4.88 0h-.97m-4.88 0h-.97m-4.88 0h-9.75m-4.87 0h-.98m-4.87 0h-.98m-4.87 0h-9.75m-4.88 0h-.97m-4.88 0h-.97m-4.88 0h-9.74m-4.88 0h-.97m-4.87 0h-.97m-4.88 0h-9.75m-4.87 0h-.98m-4.87 0h-.97m-4.87 0h-4.88" stroke="#333" fill="none"/><path d="M1520.5 497.18l-.86-.07-.14.03v-.5h1" fill="#333"/><path d="M1361.62 130.46l14.26-4.64v9.27z" stroke="#333" fill="#333"/><defs><path d="M730-137c145 0 253-29 323-105v-327H716v-156h528v534C1148-51 964 20 729 20c-394 0-598-279-607-678v-127c-5-410 194-690 585-691 310-1 499 171 537 447h-192c-36-193-151-289-344-289-285 0-393 220-393 528v119c-5 296 140 534 415 534" id="Y"/><path d="M663-916c-163-27-288 18-338 148V0H140v-1082h180l3 125c61-97 147-145 258-145 36 0 63 5 82 14v172" id="Z"/><path d="M561-1102c238-4 403 126 403 351v498c0 99 13 178 38 237V0H808c-11-21-19-59-26-114C696-25 593 20 474 20c-199 0-368-130-365-320 4-251 214-359 490-356h180v-85c-1-135-86-212-229-212-115 0-232 67-233 171H131c20-205 206-316 430-320zM294-326c0 117 90 185 207 185 122 0 239-75 278-162v-222H634c-227 0-340 66-340 199" id="aa"/><path d="M520 20C244 20 95-247 95-550c0-298 151-550 427-552 127 0 227 43 301 130v-564h185V0H838l-9-116C755-25 652 20 520 20zm48-965c-210 0-288 177-288 416 0 218 87 392 286 392 117 0 203-53 257-158v-497c-55-102-140-153-255-153" id="ab"/><path d="M341 0H156v-1536h185V0" id="ac"/><path d="M599-131c141 0 220-65 285-146l113 88C906-50 770 20 589 20 281 21 93-214 93-545c0-223 93-397 233-485 74-48 154-72 240-72 300 2 449 218 445 537v77H278c0 197 129 357 321 357zm227-509c-3-180-88-310-260-310-170 0-264 140-282 310h542" id="ad"/><g id="a"><use transform="matrix(0.0087890625,0,0,0.0087890625,0,0)" xlink:href="#Y"/><use transform="matrix(0.0087890625,0,0,0.0087890625,12.2607421875,0)" xlink:href="#Z"/><use transform="matrix(0.0087890625,0,0,0.0087890625,18,0)" xlink:href="#aa"/><use transform="matrix(0.0087890625,0,0,0.0087890625,27.791015625,0)" xlink:href="#ab"/><use transform="matrix(0.0087890625,0,0,0.0087890625,37.9423828125,0)" xlink:href="#ac"/><use transform="matrix(0.0087890625,0,0,0.0087890625,42.310546875,0)" xlink:href="#ad"/></g><path d="M632-1102c291 0 422 251 422 573 0 297-141 548-419 549-131 0-235-42-310-125v521H140v-1498h169l9 120c75-93 180-140 314-140zm-53 971c207 0 290-180 290-419 0-218-92-395-292-395-112 0-196 50-252 149v517c55 99 140 148 254 148" id="ae"/><path d="M584 20C278 26 81-227 91-551c10-320 175-545 491-551 308-5 503 247 494 573-9 322-175 543-492 549zm-2-970c-208 0-305 185-305 421 0 216 106 398 307 398 211 0 307-186 307-420 0-214-109-399-309-399" id="af"/><path d="M19 279c92 0 127-48 127-150v-1211h185V125c0 208-94 312-283 312-41 0-78-6-113-18V271c21 5 49 8 84 8zm216-1543c-68 0-107-42-108-105 0-61 42-107 108-107 68 0 110 44 110 107s-42 105-110 105" id="ag"/><path d="M277-555c0 244 77 420 297 424 127 2 249-93 255-210h175C980-127 805 20 574 20 258 20 81-222 92-562c11-319 164-533 481-540 237-5 426 165 431 392H829c-7-133-115-242-256-240-209 4-296 166-296 395" id="ah"/><path d="M456 20C285 20 205-92 206-268v-671H9v-143h197v-262h185v262h202v143H391v671c-9 125 92 149 207 118V0c-49 13-96 20-142 20" id="ai"/><g id="b"><use transform="matrix(0.0087890625,0,0,0.0087890625,0,0)" xlink:href="#ae"/><use transform="matrix(0.0087890625,0,0,0.0087890625,10.0986328125,0)" xlink:href="#Z"/><use transform="matrix(0.0087890625,0,0,0.0087890625,16.013671875,0)" xlink:href="#af"/><use transform="matrix(0.0087890625,0,0,0.0087890625,26.279296875,0)" xlink:href="#ag"/><use transform="matrix(0.0087890625,0,0,0.0087890625,30.5771484375,0)" xlink:href="#ad"/><use transform="matrix(0.0087890625,0,0,0.0087890625,40.11328125,0)" xlink:href="#ah"/><use transform="matrix(0.0087890625,0,0,0.0087890625,49.53515625,0)" xlink:href="#ai"/></g><path d="M688-137c238 0 323-102 359-325h193c-32 297-228 482-552 482-361 0-569-299-569-680 0-197 8-360 73-497 88-186 257-317 513-319 316-2 509 195 535 488h-193c-31-212-118-330-342-330-272 0-397 224-393 523v141c-3 282 115 517 376 517" id="aj"/><path d="M1240-945c-141 0-250 95-250 227V0H804v-709c0-157-77-236-231-236-121 0-204 52-249 155V0H139v-1082h175l5 120c79-93 186-140 321-140 151 0 254 58 309 174 69-98 181-174 345-174 237 0 362 126 362 377V0h-185v-714c-2-159-67-231-231-231" id="ak"/><path d="M589-945c-131 0-219 81-264 174V0H140v-1082h175l6 136c83-104 191-156 324-156 229 0 346 129 346 387V0H806v-716c-2-153-65-229-217-229" id="al"/><g id="c"><use transform="matrix(0.0087890625,0,0,0.0087890625,0,0)" xlink:href="#aj"/><use transform="matrix(0.0087890625,0,0,0.0087890625,11.7158203125,0)" xlink:href="#af"/><use transform="matrix(0.0087890625,0,0,0.0087890625,21.9814453125,0)" xlink:href="#ak"/><use transform="matrix(0.0087890625,0,0,0.0087890625,37.7578125,0)" xlink:href="#ak"/><use transform="matrix(0.0087890625,0,0,0.0087890625,53.5341796875,0)" xlink:href="#af"/><use transform="matrix(0.0087890625,0,0,0.0087890625,63.7998046875,0)" xlink:href="#al"/></g><g id="d"><use transform="matrix(0.0087890625,0,0,0.0087890625,0,0)" xlink:href="#ae"/><use transform="matrix(0.0087890625,0,0,0.0087890625,10.0986328125,0)" xlink:href="#Z"/><use transform="matrix(0.0087890625,0,0,0.0087890625,16.013671875,0)" xlink:href="#af"/><use transform="matrix(0.0087890625,0,0,0.0087890625,26.279296875,0)" xlink:href="#ag"/><use transform="matrix(0.0087890625,0,0,0.0087890625,30.5771484375,0)" xlink:href="#ad"/><use transform="matrix(0.0087890625,0,0,0.0087890625,40.11328125,0)" xlink:href="#ah"/><use transform="matrix(0.0087890625,0,0,0.0087890625,49.53515625,0)" xlink:href="#ai"/></g><path d="M634-1102c292 0 422 254 422 573 0 298-143 547-420 549-137 0-242-48-317-145L310 0H140v-1536h185v573c75-93 178-139 309-139zm-44 965c207 0 281-175 281-413 0-224-79-395-283-395-122 0-210 57-263 170v468c57 113 145 170 265 170" id="am"/><path d="M491 20c-241-1-355-148-355-398v-704h185v699c0 164 67 246 200 246 141 0 235-53 282-158v-787h185V0H812l-4-107C736-22 630 20 491 20" id="an"/><path d="M341 0H156v-1082h185V0zm-91-1264c-68 0-108-42-109-105 0-62 41-107 109-107s110 44 110 107-42 105-110 105" id="ao"/><g id="e"><use transform="matrix(0.0087890625,0,0,0.0087890625,0,0)" xlink:href="#am"/><use transform="matrix(0.0087890625,0,0,0.0087890625,10.0986328125,0)" xlink:href="#an"/><use transform="matrix(0.0087890625,0,0,0.0087890625,20.021484375,0)" xlink:href="#ao"/><use transform="matrix(0.0087890625,0,0,0.0087890625,24.3896484375,0)" xlink:href="#ac"/><use transform="matrix(0.0087890625,0,0,0.0087890625,28.7578125,0)" xlink:href="#ab"/></g><g id="f"><use transform="matrix(0.0087890625,0,0,0.0087890625,0,0)" xlink:href="#ao"/><use transform="matrix(0.0087890625,0,0,0.0087890625,4.3681640625,0)" xlink:href="#al"/></g><path d="M704-1390c-164-38-297 28-288 194v114h231v143H416V0H231v-939H60v-143h171v-111c-12-274 208-416 483-347" id="ap"/><path d="M521 20C240 20 96-239 96-550c0-303 147-552 427-552 132 0 235 47 309 140l9-120h169V-26c4 277-183 454-459 452-165-1-334-81-400-187l96-111c79 98 176 147 291 147 180 1 288-109 286-290v-93C750-23 649 20 521 20zm48-965c-209 0-287 178-287 416 0 217 86 392 285 392 117 0 202-53 257-159v-494c-57-103-142-155-255-155" id="aq"/><g id="g"><use transform="matrix(0.0087890625,0,0,0.0087890625,0,0)" xlink:href="#aj"/><use transform="matrix(0.0087890625,0,0,0.0087890625,11.7158203125,0)" xlink:href="#af"/><use transform="matrix(0.0087890625,0,0,0.0087890625,21.9814453125,0)" xlink:href="#al"/><use transform="matrix(0.0087890625,0,0,0.0087890625,31.9130859375,0)" xlink:href="#ap"/><use transform="matrix(0.0087890625,0,0,0.0087890625,38.162109375,0)" xlink:href="#ao"/><use transform="matrix(0.0087890625,0,0,0.0087890625,42.5302734375,0)" xlink:href="#aq"/></g><path d="M538-131c121 0 232-49 232-156 0-50-20-88-56-117-73-60-334-92-420-143-92-55-162-110-162-238 0-190 192-317 400-317 223 0 414 129 413 338H759c0-108-110-186-227-186-119 0-215 53-215 159 0 45 18 78 53 101 76 52 331 90 416 139 98 57 169 115 169 251C955-92 760 20 538 20c-176 0-314-68-386-174-38-55-57-115-57-179h185c6 129 116 202 258 202" id="ar"/><path d="M497-251l268-831h189L566 0H425L33-1082h189" id="as"/><g id="h"><use transform="matrix(0.0087890625,0,0,0.0087890625,0,0)" xlink:href="#ar"/><use transform="matrix(0.0087890625,0,0,0.0087890625,9.28125,0)" xlink:href="#ad"/><use transform="matrix(0.0087890625,0,0,0.0087890625,18.8173828125,0)" xlink:href="#Z"/><use transform="matrix(0.0087890625,0,0,0.0087890625,25.06640625,0)" xlink:href="#as"/><use transform="matrix(0.0087890625,0,0,0.0087890625,33.6708984375,0)" xlink:href="#ad"/><use transform="matrix(0.0087890625,0,0,0.0087890625,43.20703125,0)" xlink:href="#Z"/></g><g id="i"><use transform="matrix(0.0087890625,0,0,0.0087890625,0,0)" xlink:href="#ar"/><use transform="matrix(0.0087890625,0,0,0.0087890625,9.28125,0)" xlink:href="#ah"/><use transform="matrix(0.0087890625,0,0,0.0087890625,18.703125,0)" xlink:href="#af"/><use transform="matrix(0.0087890625,0,0,0.0087890625,28.96875,0)" xlink:href="#ae"/><use transform="matrix(0.0087890625,0,0,0.0087890625,39.0673828125,0)" xlink:href="#ad"/></g><path d="M1098-255l208-827h185L1176 0h-150L763-820 507 0H357L43-1082h184l213 810 252-810h149" id="at"/><path d="M494-271l252-811h198L509 167C425 381 299 474 84 421V271c167 16 242-37 283-173l41-110L22-1082h202" id="au"/><g id="j"><use transform="matrix(0.0087890625,0,0,0.0087890625,0,0)" xlink:href="#Y"/><use transform="matrix(0.0087890625,0,0,0.0087890625,12.2607421875,0)" xlink:href="#aa"/><use transform="matrix(0.0087890625,0,0,0.0087890625,22.0517578125,0)" xlink:href="#ai"/><use transform="matrix(0.0087890625,0,0,0.0087890625,27.931640625,0)" xlink:href="#ad"/><use transform="matrix(0.0087890625,0,0,0.0087890625,37.4677734375,0)" xlink:href="#at"/><use transform="matrix(0.0087890625,0,0,0.0087890625,50.994140625,0)" xlink:href="#aa"/><use transform="matrix(0.0087890625,0,0,0.0087890625,60.6533203125,0)" xlink:href="#au"/></g><path fill="#a9afb8" d="M230 0l2-204L168 0h-37L68-204 70 0H24v-248h70l56 185 57-185h69V0h-46" id="av"/><path fill="#a9afb8" d="M25-224v-37h50v37H25zM25 0v-190h50V0H25" id="aw"/><path fill="#a9afb8" d="M190-63c-7 42-38 67-86 67-59 0-84-38-90-98-12-110 154-137 174-36l-49 2c-2-19-15-32-35-32-30 0-35 28-38 64-6 74 65 87 74 30" id="ax"/><path fill="#a9afb8" d="M135-150c-39-12-60 13-60 57V0H25l-1-190h47c2 13-1 29 3 40 6-28 27-53 61-41v41" id="ay"/><path fill="#a9afb8" d="M110-194c64 0 96 36 96 99 0 64-35 99-97 99-61 0-95-36-95-99 0-62 34-99 96-99zm-1 164c35 0 45-28 45-65 0-40-10-65-43-65-34 0-45 26-45 65 0 36 10 65 43 65" id="az"/><path fill="#a9afb8" d="M137-138c1-29-70-34-71-4 15 46 118 7 119 86 1 83-164 76-172 9l43-7c4 19 20 25 44 25 33 8 57-30 24-41C81-84 22-81 20-136c-2-80 154-74 161-7" id="aA"/><path fill="#a9afb8" d="M185-48c-13 30-37 53-82 52C43 2 14-33 14-96s30-98 90-98c62 0 83 45 84 108H66c0 31 8 55 39 56 18 0 30-7 34-22zm-45-69c5-46-57-63-70-21-2 6-4 13-4 21h74" id="aB"/><path fill="#a9afb8" d="M128 0H69L1-190h53L99-40l48-150h52" id="aC"/><g id="k"><use transform="matrix(0.0728395061728395,0,0,0.0728395061728395,0,0)" xlink:href="#av"/><use transform="matrix(0.0728395061728395,0,0,0.0728395061728395,21.77901234567901,0)" xlink:href="#aw"/><use transform="matrix(0.0728395061728395,0,0,0.0728395061728395,29.06296296296296,0)" xlink:href="#ax"/><use transform="matrix(0.0728395061728395,0,0,0.0728395061728395,43.63086419753086,0)" xlink:href="#ay"/><use transform="matrix(0.0728395061728395,0,0,0.0728395061728395,53.82839506172839,0)" xlink:href="#az"/><use transform="matrix(0.0728395061728395,0,0,0.0728395061728395,69.78024691358024,0)" xlink:href="#aA"/><use transform="matrix(0.0728395061728395,0,0,0.0728395061728395,84.34814814814814,0)" xlink:href="#aB"/><use transform="matrix(0.0728395061728395,0,0,0.0728395061728395,98.91604938271605,0)" xlink:href="#ay"/><use transform="matrix(0.0728395061728395,0,0,0.0728395061728395,109.11358024691359,0)" xlink:href="#aC"/><use transform="matrix(0.0728395061728395,0,0,0.0728395061728395,123.68148148148147,0)" xlink:href="#aw"/><use transform="matrix(0.0728395061728395,0,0,0.0728395061728395,130.96543209876543,0)" xlink:href="#ax"/><use transform="matrix(0.0728395061728395,0,0,0.0728395061728395,145.53333333333333,0)" xlink:href="#aB"/></g><path fill="#a9afb8" d="M24-248c93 1 206-16 204 79-1 75-69 88-152 82V0H24v-248zm52 121c47 0 100 7 100-41 0-47-54-39-100-39v80" id="aD"/><path fill="#a9afb8" d="M25-224v-37h50v37H25zM75 22c2 45-34 59-81 51V38c22 5 31-5 31-27v-201h50V22" id="aE"/><path fill="#a9afb8" d="M115-3C79 11 28 4 28-45v-112H4v-33h27l15-45h31v45h36v33H77v99c-1 23 16 31 38 25v30" id="aF"/><g id="l"><use transform="matrix(0.0728395061728395,0,0,0.0728395061728395,0,0)" xlink:href="#aD"/><use transform="matrix(0.0728395061728395,0,0,0.0728395061728395,17.48148148148148,0)" xlink:href="#ay"/><use transform="matrix(0.0728395061728395,0,0,0.0728395061728395,27.679012345679013,0)" xlink:href="#az"/><use transform="matrix(0.0728395061728395,0,0,0.0728395061728395,43.63086419753086,0)" xlink:href="#aE"/><use transform="matrix(0.0728395061728395,0,0,0.0728395061728395,50.91481481481481,0)" xlink:href="#aB"/><use transform="matrix(0.0728395061728395,0,0,0.0728395061728395,65.48271604938272,0)" xlink:href="#ax"/><use transform="matrix(0.0728395061728395,0,0,0.0728395061728395,80.05061728395061,0)" xlink:href="#aF"/><use transform="matrix(0.0728395061728395,0,0,0.0728395061728395,88.71851851851852,0)" xlink:href="#aA"/></g><path fill="#a9afb8" d="M30 0v-248h187v28H63v79h144v27H63v87h162V0H30" id="aG"/><path fill="#a9afb8" d="M210-169c-67 3-38 105-44 169h-31v-121c0-29-5-50-35-48C34-165 62-65 56 0H25l-1-190h30c1 10-1 24 2 32 10-44 99-50 107 0 11-21 27-35 58-36 85-2 47 119 55 194h-31v-121c0-29-5-49-35-48" id="aH"/><path fill="#a9afb8" d="M24-231v-30h32v30H24zM24 0v-190h32V0H24" id="aI"/><path fill="#a9afb8" d="M24 0v-261h32V0H24" id="aJ"/><g id="m"><use transform="matrix(0.04248971193415638,0,0,0.04248971193415638,0,0)" xlink:href="#aG"/><use transform="matrix(0.04248971193415638,0,0,0.04248971193415638,10.19753086419753,0)" xlink:href="#aH"/><use transform="matrix(0.04248971193415638,0,0,0.04248971193415638,22.901954732510287,0)" xlink:href="#aI"/><use transform="matrix(0.04248971193415638,0,0,0.04248971193415638,26.25864197530864,0)" xlink:href="#aJ"/></g><path fill="#a9afb8" d="M266 0h-40l-56-210L115 0H75L2-248h35L96-30l15-64 43-154h32l59 218 59-218h35" id="aK"/><path fill="#a9afb8" d="M100-194c62-1 85 37 85 99 1 63-27 99-86 99S16-35 15-95c0-66 28-99 85-99zM99-20c44 1 53-31 53-75 0-43-8-75-51-75s-53 32-53 75 10 74 51 75" id="aL"/><path fill="#a9afb8" d="M9 0v-24l116-142H16v-24h144v24L44-24h123V0H9zm58-211c8-23 27-35 38-54h36v5l-58 49H67" id="aM"/><path fill="#a9afb8" d="M117-194c89-4 53 116 60 194h-32v-121c0-31-8-49-39-48C34-167 62-67 57 0H25l-1-190h30c1 10-1 24 2 32 11-22 29-35 61-36" id="aN"/><path fill="#a9afb8" d="M141-36C126-15 110 5 73 4 37 3 15-17 15-53c-1-64 63-63 125-63 3-35-9-54-41-54-24 1-41 7-42 31l-33-3c5-37 33-52 76-52 45 0 72 20 72 64v82c-1 20 7 32 28 27v20c-31 9-61-2-59-35zM48-53c0 20 12 33 32 33 41-3 63-29 60-74-43 2-92-5-92 41" id="aO"/><path fill="#a9afb8" d="M143 0L79-87 56-68V0H24v-261h32v163l83-92h37l-77 82L181 0h-38" id="aP"/><g id="n"><use transform="matrix(0.04248971193415638,0,0,0.04248971193415638,0,0)" xlink:href="#aK"/><use transform="matrix(0.04248971193415638,0,0,0.04248971193415638,14.106584362139918,0)" xlink:href="#aL"/><use transform="matrix(0.04248971193415638,0,0,0.04248971193415638,22.604526748971193,0)" xlink:href="#aM"/><use transform="matrix(0.04248971193415638,0,0,0.04248971193415638,30.25267489711934,0)" xlink:href="#aN"/><use transform="matrix(0.04248971193415638,0,0,0.04248971193415638,38.75061728395062,0)" xlink:href="#aI"/><use transform="matrix(0.04248971193415638,0,0,0.04248971193415638,42.10730452674897,0)" xlink:href="#aO"/><use transform="matrix(0.04248971193415638,0,0,0.04248971193415638,50.605246913580245,0)" xlink:href="#aP"/></g><path fill="#a9afb8" d="M32 76v-337h29V76H32" id="aQ"/><use transform="matrix(0.04248971193415638,0,0,0.04248971193415638,0,0)" xlink:href="#aQ" id="o"/><path fill="#a9afb8" d="M140-251c81 0 123 46 123 126C263-46 219 4 140 4 59 4 17-45 17-125s42-126 123-126zm0 227c63 0 89-41 89-101s-29-99-89-99c-61 0-89 39-89 99S79-25 140-24" id="aR"/><path fill="#a9afb8" d="M96-169c-40 0-48 33-48 73s9 75 48 75c24 0 41-14 43-38l32 2c-6 37-31 61-74 61-59 0-76-41-82-99-10-93 101-131 147-64 4 7 5 14 7 22l-32 3c-4-21-16-35-41-35" id="aS"/><path fill="#a9afb8" d="M59-47c-2 24 18 29 38 22v24C64 9 27 4 27-40v-127H5v-23h24l9-43h21v43h35v23H59v120" id="aT"/><path fill="#a9afb8" d="M115-194c53 0 69 39 70 98 0 66-23 100-70 100C84 3 66-7 56-30L54 0H23l1-261h32v101c10-23 28-34 59-34zm-8 174c40 0 45-34 45-75 0-40-5-75-45-74-42 0-51 32-51 76 0 43 10 73 51 73" id="aU"/><path fill="#a9afb8" d="M100-194c63 0 86 42 84 106H49c0 40 14 67 53 68 26 1 43-12 49-29l28 8c-11 28-37 45-77 45C44 4 14-33 15-96c1-61 26-98 85-98zm52 81c6-60-76-77-97-28-3 7-6 17-6 28h103" id="aV"/><path fill="#a9afb8" d="M114-163C36-179 61-72 57 0H25l-1-190h30c1 12-1 29 2 39 6-27 23-49 58-41v29" id="aW"/><g id="p"><use transform="matrix(0.04248971193415638,0,0,0.04248971193415638,0,0)" xlink:href="#aR"/><use transform="matrix(0.04248971193415638,0,0,0.04248971193415638,11.897119341563785,0)" xlink:href="#aS"/><use transform="matrix(0.04248971193415638,0,0,0.04248971193415638,19.545267489711932,0)" xlink:href="#aT"/><use transform="matrix(0.04248971193415638,0,0,0.04248971193415638,23.79423868312757,0)" xlink:href="#aL"/><use transform="matrix(0.04248971193415638,0,0,0.04248971193415638,32.29218106995884,0)" xlink:href="#aU"/><use transform="matrix(0.04248971193415638,0,0,0.04248971193415638,40.79012345679012,0)" xlink:href="#aV"/><use transform="matrix(0.04248971193415638,0,0,0.04248971193415638,49.288065843621396,0)" xlink:href="#aW"/></g><path fill="#a9afb8" d="M99-251c64 0 84 50 84 122C183-37 130 33 47-8c-14-7-20-23-25-40l30-5c6 39 69 39 84 7 9-19 16-44 16-74-10 22-31 35-62 35-49 0-73-33-73-83 0-54 28-83 82-83zm-1 141c31-1 51-18 51-49 0-36-14-67-51-67-34 0-49 23-49 58 0 34 15 58 49 58" id="aX"/><path fill="#a9afb8" d="M68-38c1 34 0 65-14 84H32c9-13 17-26 17-46H33v-38h35" id="aY"/><g id="q"><use transform="matrix(0.04248971193415638,0,0,0.04248971193415638,0,0)" xlink:href="#aX"/><use transform="matrix(0.04248971193415638,0,0,0.04248971193415638,8.497942386831275,0)" xlink:href="#aY"/></g><path fill="#a9afb8" d="M101-251c82-7 93 87 43 132L82-64C71-53 59-42 53-27h129V0H18c2-99 128-94 128-182 0-28-16-43-45-43s-46 15-49 41l-32-3c6-41 34-60 81-64" id="aZ"/><path fill="#a9afb8" d="M101-251c68 0 85 55 85 127S166 4 100 4C33 4 14-52 14-124c0-73 17-127 87-127zm-1 229c47 0 54-49 54-102s-4-102-53-102c-51 0-55 48-55 102 0 53 5 102 54 102" id="ba"/><path fill="#a9afb8" d="M27 0v-27h64v-190l-56 39v-29l58-41h29v221h61V0H27" id="bb"/><g id="r"><use transform="matrix(0.04248971193415638,0,0,0.04248971193415638,0,0)" xlink:href="#aZ"/><use transform="matrix(0.04248971193415638,0,0,0.04248971193415638,8.497942386831275,0)" xlink:href="#ba"/><use transform="matrix(0.04248971193415638,0,0,0.04248971193415638,16.99588477366255,0)" xlink:href="#aZ"/><use transform="matrix(0.04248971193415638,0,0,0.04248971193415638,25.493827160493822,0)" xlink:href="#bb"/></g><g id="s"><use transform="matrix(0.0087890625,0,0,0.0087890625,0,0)" xlink:href="#aj"/><use transform="matrix(0.0087890625,0,0,0.0087890625,11.7158203125,0)" xlink:href="#ac"/><use transform="matrix(0.0087890625,0,0,0.0087890625,16.083984375,0)" xlink:href="#af"/><use transform="matrix(0.0087890625,0,0,0.0087890625,26.349609375,0)" xlink:href="#an"/><use transform="matrix(0.0087890625,0,0,0.0087890625,36.2724609375,0)" xlink:href="#ab"/></g><path d="M362-157h690V0H169v-1456h193v1299" id="bc"/><g id="t"><use transform="matrix(0.0087890625,0,0,0.0087890625,0,0)" xlink:href="#bc"/><use transform="matrix(0.0087890625,0,0,0.0087890625,9.685546875,0)" xlink:href="#af"/><use transform="matrix(0.0087890625,0,0,0.0087890625,19.951171875,0)" xlink:href="#aa"/><use transform="matrix(0.0087890625,0,0,0.0087890625,29.7421875,0)" xlink:href="#ab"/></g><path d="M1160-420C1159-145 963 0 674 0H169v-1456h476c294-1 476 112 476 388 0 153-99 253-216 302 146 38 255 167 255 346zM678-157c171 2 289-95 289-261 0-175-95-263-286-263H361v524h317zm250-912c-2-172-104-229-283-229H361v463h290c157 3 278-84 277-234" id="bd"/><g id="u"><use transform="matrix(0.0087890625,0,0,0.0087890625,0,0)" xlink:href="#bd"/><use transform="matrix(0.0087890625,0,0,0.0087890625,11.2060546875,0)" xlink:href="#aa"/><use transform="matrix(0.0087890625,0,0,0.0087890625,20.9970703125,0)" xlink:href="#ac"/><use transform="matrix(0.0087890625,0,0,0.0087890625,25.365234375,0)" xlink:href="#aa"/><use transform="matrix(0.0087890625,0,0,0.0087890625,35.15625,0)" xlink:href="#al"/><use transform="matrix(0.0087890625,0,0,0.0087890625,45.087890625,0)" xlink:href="#ah"/><use transform="matrix(0.0087890625,0,0,0.0087890625,54.509765625,0)" xlink:href="#ao"/><use transform="matrix(0.0087890625,0,0,0.0087890625,58.8779296875,0)" xlink:href="#al"/><use transform="matrix(0.0087890625,0,0,0.0087890625,68.8095703125,0)" xlink:href="#aq"/></g><g id="v"><use transform="matrix(0.0087890625,0,0,0.0087890625,0,0)" xlink:href="#aj"/><use transform="matrix(0.0087890625,0,0,0.0087890625,11.7158203125,0)" xlink:href="#ac"/><use transform="matrix(0.0087890625,0,0,0.0087890625,16.083984375,0)" xlink:href="#af"/><use transform="matrix(0.0087890625,0,0,0.0087890625,26.349609375,0)" xlink:href="#an"/><use transform="matrix(0.0087890625,0,0,0.0087890625,36.2724609375,0)" xlink:href="#ab"/></g><path d="M1161-1018c0 201-122 330-278 388l342 618V0h-206L703-589H361V0H168v-1456h482c310-2 511 139 511 438zm-193 0c0-187-120-280-313-280H361v552h295c179 3 313-101 312-272" id="be"/><g id="w"><use transform="matrix(0.0087890625,0,0,0.0087890625,0,0)" xlink:href="#be"/><use transform="matrix(0.0087890625,0,0,0.0087890625,11.0830078125,0)" xlink:href="#af"/><use transform="matrix(0.0087890625,0,0,0.0087890625,21.3486328125,0)" xlink:href="#an"/><use transform="matrix(0.0087890625,0,0,0.0087890625,31.271484375,0)" xlink:href="#ai"/><use transform="matrix(0.0087890625,0,0,0.0087890625,37.1513671875,0)" xlink:href="#ad"/><use transform="matrix(0.0087890625,0,0,0.0087890625,46.6875,0)" xlink:href="#ar"/></g><g id="x"><use transform="matrix(0.0087890625,0,0,0.0087890625,0,0)" xlink:href="#aj"/><use transform="matrix(0.0087890625,0,0,0.0087890625,11.7158203125,0)" xlink:href="#ac"/><use transform="matrix(0.0087890625,0,0,0.0087890625,16.083984375,0)" xlink:href="#ao"/><use transform="matrix(0.0087890625,0,0,0.0087890625,20.4521484375,0)" xlink:href="#ad"/><use transform="matrix(0.0087890625,0,0,0.0087890625,29.98828125,0)" xlink:href="#al"/><use transform="matrix(0.0087890625,0,0,0.0087890625,39.919921875,0)" xlink:href="#ai"/></g><path d="M631-137c179 0 314-70 314-231 0-71-25-127-75-166s-141-77-272-115c-165-47-285-106-360-175s-112-154-112-255c0-245 231-397 495-397 206 0 369 89 449 218 43 68 65 142 65 223H942c0-184-129-283-321-283-172 0-299 76-301 236 0 59 26 109 76 150s135 78 256 113c205 59 345 116 436 256 35 53 50 119 50 193-2 256-231 398-507 390C333 12 90-129 80-422h193c0 187 160 285 358 285" id="bf"/><g id="y"><use transform="matrix(0.0087890625,0,0,0.0087890625,0,0)" xlink:href="#aj"/><use transform="matrix(0.0087890625,0,0,0.0087890625,11.7158203125,0)" xlink:href="#af"/><use transform="matrix(0.0087890625,0,0,0.0087890625,21.9814453125,0)" xlink:href="#al"/><use transform="matrix(0.0087890625,0,0,0.0087890625,31.9130859375,0)" xlink:href="#ap"/><use transform="matrix(0.0087890625,0,0,0.0087890625,38.162109375,0)" xlink:href="#ao"/><use transform="matrix(0.0087890625,0,0,0.0087890625,42.5302734375,0)" xlink:href="#aq"/><use transform="matrix(0.0087890625,0,0,0.0087890625,52.62890625,0)" xlink:href="#bf"/><use transform="matrix(0.0087890625,0,0,0.0087890625,63.3076171875,0)" xlink:href="#ad"/><use transform="matrix(0.0087890625,0,0,0.0087890625,72.84375,0)" xlink:href="#Z"/><use transform="matrix(0.0087890625,0,0,0.0087890625,79.0927734375,0)" xlink:href="#as"/><use transform="matrix(0.0087890625,0,0,0.0087890625,87.697265625,0)" xlink:href="#ad"/><use transform="matrix(0.0087890625,0,0,0.0087890625,97.2333984375,0)" xlink:href="#Z"/></g><g id="z"><use transform="matrix(0.0087890625,0,0,0.0087890625,0,0)" xlink:href="#aj"/><use transform="matrix(0.0087890625,0,0,0.0087890625,11.7158203125,0)" xlink:href="#af"/><use transform="matrix(0.0087890625,0,0,0.0087890625,21.9814453125,0)" xlink:href="#al"/><use transform="matrix(0.0087890625,0,0,0.0087890625,31.9130859375,0)" xlink:href="#ai"/><use transform="matrix(0.0087890625,0,0,0.0087890625,37.79296875,0)" xlink:href="#ad"/><use transform="matrix(0.0087890625,0,0,0.0087890625,47.3291015625,0)" xlink:href="#al"/><use transform="matrix(0.0087890625,0,0,0.0087890625,57.2607421875,0)" xlink:href="#ai"/></g><path d="M972-643H361V0H169v-1456h902v158H361v498h611v157" id="bg"/><g id="A"><use transform="matrix(0.0087890625,0,0,0.0087890625,0,0)" xlink:href="#bg"/><use transform="matrix(0.0087890625,0,0,0.0087890625,9.94921875,0)" xlink:href="#ao"/><use transform="matrix(0.0087890625,0,0,0.0087890625,14.3173828125,0)" xlink:href="#ac"/><use transform="matrix(0.0087890625,0,0,0.0087890625,18.685546875,0)" xlink:href="#ai"/><use transform="matrix(0.0087890625,0,0,0.0087890625,24.5654296875,0)" xlink:href="#ad"/><use transform="matrix(0.0087890625,0,0,0.0087890625,34.1015625,0)" xlink:href="#Z"/></g><path d="M30-248c118-7 216 8 213 122C240-48 200 0 122 0H30v-248zM63-27c89 8 146-16 146-99s-60-101-146-95v194" id="bh"/><path d="M141-36C126-15 110 5 73 4 37 3 15-17 15-53c-1-64 63-63 125-63 3-35-9-54-41-54-24 1-41 7-42 31l-33-3c5-37 33-52 76-52 45 0 72 20 72 64v82c-1 20 7 32 28 27v20c-31 9-61-2-59-35zM48-53c0 20 12 33 32 33 41-3 63-29 60-74-43 2-92-5-92 41" id="bi"/><path d="M59-47c-2 24 18 29 38 22v24C64 9 27 4 27-40v-127H5v-23h24l9-43h21v43h35v23H59v120" id="bj"/><path d="M115-194c53 0 69 39 70 98 0 66-23 100-70 100C84 3 66-7 56-30L54 0H23l1-261h32v101c10-23 28-34 59-34zm-8 174c40 0 45-34 45-75 0-40-5-75-45-74-42 0-51 32-51 76 0 43 10 73 51 73" id="bk"/><path d="M135-143c-3-34-86-38-87 0 15 53 115 12 119 90S17 21 10-45l28-5c4 36 97 45 98 0-10-56-113-15-118-90-4-57 82-63 122-42 12 7 21 19 24 35" id="bl"/><path d="M100-194c63 0 86 42 84 106H49c0 40 14 67 53 68 26 1 43-12 49-29l28 8c-11 28-37 45-77 45C44 4 14-33 15-96c1-61 26-98 85-98zm52 81c6-60-76-77-97-28-3 7-6 17-6 28h103" id="bm"/><g id="B"><use transform="matrix(0.05,0,0,0.05,0,0)" xlink:href="#bh"/><use transform="matrix(0.05,0,0,0.05,12.950000000000001,0)" xlink:href="#bi"/><use transform="matrix(0.05,0,0,0.05,22.950000000000003,0)" xlink:href="#bj"/><use transform="matrix(0.05,0,0,0.05,27.950000000000003,0)" xlink:href="#bi"/><use transform="matrix(0.05,0,0,0.05,37.95,0)" xlink:href="#bk"/><use transform="matrix(0.05,0,0,0.05,47.95,0)" xlink:href="#bi"/><use transform="matrix(0.05,0,0,0.05,57.95,0)" xlink:href="#bl"/><use transform="matrix(0.05,0,0,0.05,66.95,0)" xlink:href="#bm"/></g><path d="M101-234c-31-9-42 10-38 44h38v23H63V0H32v-167H5v-23h27c-7-52 17-82 69-68v24" id="bn"/><path d="M100-194c62-1 85 37 85 99 1 63-27 99-86 99S16-35 15-95c0-66 28-99 85-99zM99-20c44 1 53-31 53-75 0-43-8-75-51-75s-53 32-53 75 10 74 51 75" id="bo"/><path d="M114-163C36-179 61-72 57 0H25l-1-190h30c1 12-1 29 2 39 6-27 23-49 58-41v29" id="bp"/><g id="C"><use transform="matrix(0.05,0,0,0.05,0,0)" xlink:href="#bn"/><use transform="matrix(0.05,0,0,0.05,5,0)" xlink:href="#bo"/><use transform="matrix(0.05,0,0,0.05,15,0)" xlink:href="#bp"/></g><path d="M30-248c87 1 191-15 191 75 0 78-77 80-158 76V0H30v-248zm33 125c57 0 124 11 124-50 0-59-68-47-124-48v98" id="bq"/><path d="M177-190C167-65 218 103 67 71c-23-6-38-20-44-43l32-5c15 47 100 32 89-28v-30C133-14 115 1 83 1 29 1 15-40 15-95c0-56 16-97 71-98 29-1 48 16 59 35 1-10 0-23 2-32h30zM94-22c36 0 50-32 50-73 0-42-14-75-50-75-39 0-46 34-46 75s6 73 46 73" id="br"/><path d="M185-189c-5-48-123-54-124 2 14 75 158 14 163 119 3 78-121 87-175 55-17-10-28-26-33-46l33-7c5 56 141 63 141-1 0-78-155-14-162-118-5-82 145-84 179-34 5 7 8 16 11 25" id="bs"/><path d="M140-251c81 0 123 46 123 126C263-53 228-8 163 1c7 30 30 48 69 40v23c-55 16-95-15-103-61C56-3 17-48 17-125c0-80 42-126 123-126zm0 227c63 0 89-41 89-101s-29-99-89-99c-61 0-89 39-89 99S79-25 140-24" id="bt"/><path d="M30 0v-248h33v221h125V0H30" id="bu"/><g id="D"><use transform="matrix(0.05,0,0,0.05,0,0)" xlink:href="#bq"/><use transform="matrix(0.05,0,0,0.05,12,0)" xlink:href="#bo"/><use transform="matrix(0.05,0,0,0.05,22,0)" xlink:href="#bl"/><use transform="matrix(0.05,0,0,0.05,31,0)" xlink:href="#bj"/><use transform="matrix(0.05,0,0,0.05,36,0)" xlink:href="#br"/><use transform="matrix(0.05,0,0,0.05,46,0)" xlink:href="#bp"/><use transform="matrix(0.05,0,0,0.05,51.95,0)" xlink:href="#bm"/><use transform="matrix(0.05,0,0,0.05,61.95,0)" xlink:href="#bs"/><use transform="matrix(0.05,0,0,0.05,73.95,0)" xlink:href="#bt"/><use transform="matrix(0.05,0,0,0.05,87.95,0)" xlink:href="#bu"/></g><path d="M108 0H70L1-190h34L89-25l56-165h34" id="bv"/><g id="E"><use transform="matrix(0.05,0,0,0.05,0,0)" xlink:href="#bs"/><use transform="matrix(0.05,0,0,0.05,12,0)" xlink:href="#bm"/><use transform="matrix(0.05,0,0,0.05,22,0)" xlink:href="#bp"/><use transform="matrix(0.05,0,0,0.05,27.950000000000003,0)" xlink:href="#bv"/><use transform="matrix(0.05,0,0,0.05,36.95,0)" xlink:href="#bm"/><use transform="matrix(0.05,0,0,0.05,46.95,0)" xlink:href="#bp"/><use transform="matrix(0.05,0,0,0.05,52.900000000000006,0)" xlink:href="#bl"/></g><path d="M973-380H363L226 0H28l556-1456h168L1309 0h-197zM421-538h495l-248-681" id="bw"/><path d="M589-945c-131 0-219 81-264 174V0H140v-1536h185v585c82-101 189-151 320-151 229 0 346 129 346 387V0H806v-716c-2-153-65-229-217-229" id="bx"/><path d="M314-151h633V0H88v-136l597-793H97v-153h820v131" id="by"/><path d="M248 11c-71 0-114-43-114-108 0-67 42-112 114-112s116 45 116 112c-1 65-45 108-116 108zm1-883c-71 0-114-43-114-108 0-67 42-112 114-112s116 45 116 112c-1 65-45 108-116 108" id="bz"/><g id="G"><use transform="matrix(0.006618923611111111,0,0,0.006618923611111111,0,0)" xlink:href="#bw"/><use transform="matrix(0.006618923611111111,0,0,0.006618923611111111,8.842881944444445,0)" xlink:href="#an"/><use transform="matrix(0.006618923611111111,0,0,0.006618923611111111,16.31564670138889,0)" xlink:href="#ai"/><use transform="matrix(0.006618923611111111,0,0,0.006618923611111111,20.74370659722222,0)" xlink:href="#bx"/><use transform="matrix(0.006618923611111111,0,0,0.006618923611111111,28.209852430555554,0)" xlink:href="#af"/><use transform="matrix(0.006618923611111111,0,0,0.006618923611111111,35.94075520833333,0)" xlink:href="#Z"/><use transform="matrix(0.006618923611111111,0,0,0.006618923611111111,40.52766927083333,0)" xlink:href="#ao"/><use transform="matrix(0.006618923611111111,0,0,0.006618923611111111,43.81727430555555,0)" xlink:href="#by"/><use transform="matrix(0.006618923611111111,0,0,0.006618923611111111,50.53548177083333,0)" xlink:href="#aa"/><use transform="matrix(0.006618923611111111,0,0,0.006618923611111111,57.90896267361111,0)" xlink:href="#ai"/><use transform="matrix(0.006618923611111111,0,0,0.006618923611111111,62.33702256944444,0)" xlink:href="#ao"/><use transform="matrix(0.006618923611111111,0,0,0.006618923611111111,65.62662760416667,0)" xlink:href="#af"/><use transform="matrix(0.006618923611111111,0,0,0.006618923611111111,73.35753038194444,0)" xlink:href="#al"/><use transform="matrix(0.006618923611111111,0,0,0.006618923611111111,80.8369140625,0)" xlink:href="#bz"/></g><g id="H"><use transform="matrix(0.006618923611111111,0,0,0.006618923611111111,0,0)" xlink:href="#bd"/><use transform="matrix(0.006618923611111111,0,0,0.006618923611111111,8.439127604166666,0)" xlink:href="#ad"/><use transform="matrix(0.006618923611111111,0,0,0.006618923611111111,15.620659722222221,0)" xlink:href="#aa"/><use transform="matrix(0.006618923611111111,0,0,0.006618923611111111,22.994140625,0)" xlink:href="#Z"/><use transform="matrix(0.006618923611111111,0,0,0.006618923611111111,27.45529513888889,0)" xlink:href="#ad"/><use transform="matrix(0.006618923611111111,0,0,0.006618923611111111,34.63682725694444,0)" xlink:href="#Z"/></g><path d="M1175-1298H707V0H516v-1298H49v-158h1126v158" id="bA"/><path d="M442-501L326-380V0H141v-1536h185v929c135-169 291-317 436-475h225L566-630 1036 0H819" id="bB"/><g id="I"><use transform="matrix(0.006618923611111111,0,0,0.006618923611111111,0,0)" xlink:href="#bA"/><use transform="matrix(0.006618923611111111,0,0,0.006618923611111111,7.433051215277776,0)" xlink:href="#af"/><use transform="matrix(0.006618923611111111,0,0,0.006618923611111111,15.163953993055552,0)" xlink:href="#bB"/><use transform="matrix(0.006618923611111111,0,0,0.006618923611111111,21.902018229166664,0)" xlink:href="#ad"/><use transform="matrix(0.006618923611111111,0,0,0.006618923611111111,29.08355034722222,0)" xlink:href="#al"/></g><filter id="F" filterUnits="objectBoundingBox" x="-.01" y="-.01" width="1.01" height="1.05"><feOffset result="offOut" in="SourceAlpha" dy="1"/><feGaussianBlur result="blurOut" in="offOut" stdDeviation=".75"/><feColorMatrix result="colorOut" in="blurOut" values="0 0 0 0 0 0 0 0 0 0 0 0 0 0 0 0 0 0 0.4 0"/><feBlend in="SourceGraphic" in2="colorOut"/></filter><g id="J"><use transform="matrix(0.0087890625,0,0,0.0087890625,0,0)" xlink:href="#aj"/><use transform="matrix(0.0087890625,0,0,0.0087890625,11.7158203125,0)" xlink:href="#af"/><use transform="matrix(0.0087890625,0,0,0.0087890625,21.9814453125,0)" xlink:href="#al"/><use transform="matrix(0.0087890625,0,0,0.0087890625,31.9130859375,0)" xlink:href="#ai"/><use transform="matrix(0.0087890625,0,0,0.0087890625,37.79296875,0)" xlink:href="#aa"/><use transform="matrix(0.0087890625,0,0,0.0087890625,47.583984375,0)" xlink:href="#ao"/><use transform="matrix(0.0087890625,0,0,0.0087890625,51.9521484375,0)" xlink:href="#al"/><use transform="matrix(0.0087890625,0,0,0.0087890625,61.8837890625,0)" xlink:href="#ad"/><use transform="matrix(0.0087890625,0,0,0.0087890625,71.419921875,0)" xlink:href="#Z"/></g><g id="K"><use transform="matrix(0.0087890625,0,0,0.0087890625,0,0)" xlink:href="#be"/><use transform="matrix(0.0087890625,0,0,0.0087890625,11.0830078125,0)" xlink:href="#ad"/><use transform="matrix(0.0087890625,0,0,0.0087890625,20.619140625,0)" xlink:href="#aq"/><use transform="matrix(0.0087890625,0,0,0.0087890625,30.7177734375,0)" xlink:href="#ao"/><use transform="matrix(0.0087890625,0,0,0.0087890625,35.0859375,0)" xlink:href="#ar"/><use transform="matrix(0.0087890625,0,0,0.0087890625,44.3671875,0)" xlink:href="#ai"/><use transform="matrix(0.0087890625,0,0,0.0087890625,50.2470703125,0)" xlink:href="#Z"/><use transform="matrix(0.0087890625,0,0,0.0087890625,56.49609375,0)" xlink:href="#au"/></g><g id="L"><use transform="matrix(0.0087890625,0,0,0.0087890625,0,0)" xlink:href="#aj"/><use transform="matrix(0.0087890625,0,0,0.0087890625,11.7158203125,0)" xlink:href="#an"/><use transform="matrix(0.0087890625,0,0,0.0087890625,21.638671875,0)" xlink:href="#ar"/><use transform="matrix(0.0087890625,0,0,0.0087890625,30.919921875,0)" xlink:href="#ai"/><use transform="matrix(0.0087890625,0,0,0.0087890625,36.6240234375,0)" xlink:href="#af"/><use transform="matrix(0.0087890625,0,0,0.0087890625,46.8896484375,0)" xlink:href="#ak"/><use transform="matrix(0.0087890625,0,0,0.0087890625,62.666015625,0)" xlink:href="#ad"/><use transform="matrix(0.0087890625,0,0,0.0087890625,72.2021484375,0)" xlink:href="#Z"/><use transform="matrix(0.0087890625,0,0,0.0087890625,78.29296875,0)" xlink:href="#ar"/></g><path d="M1216-1011c-1 297-202 441-512 441H361V0H169v-1456h537c297-6 510 164 510 445zm-192 2c1-178-126-288-307-289H361v571h345c196 1 318-92 318-282" id="bC"/><g id="M"><use transform="matrix(0.0087890625,0,0,0.0087890625,0,0)" xlink:href="#bC"/><use transform="matrix(0.0087890625,0,0,0.0087890625,11.2412109375,0)" xlink:href="#af"/><use transform="matrix(0.0087890625,0,0,0.0087890625,21.5068359375,0)" xlink:href="#ar"/><use transform="matrix(0.0087890625,0,0,0.0087890625,30.7880859375,0)" xlink:href="#ai"/><use transform="matrix(0.0087890625,0,0,0.0087890625,36.66796875,0)" xlink:href="#ar"/></g><path d="M665-137c214 0 337-121 336-332v-987h193v990c-3 300-218 486-529 486-309 0-526-181-525-484v-992h190v986c-1 210 123 333 335 333" id="bD"/><g id="N"><use transform="matrix(0.0087890625,0,0,0.0087890625,0,0)" xlink:href="#bD"/><use transform="matrix(0.0087890625,0,0,0.0087890625,11.671875,0)" xlink:href="#ar"/><use transform="matrix(0.0087890625,0,0,0.0087890625,20.953125,0)" xlink:href="#ad"/><use transform="matrix(0.0087890625,0,0,0.0087890625,30.4892578125,0)" xlink:href="#Z"/><use transform="matrix(0.0087890625,0,0,0.0087890625,36.580078125,0)" xlink:href="#ar"/></g><path d="M30 0v-248h187v28H63v79h144v27H63v87h162V0H30" id="bE"/><path d="M210-169c-67 3-38 105-44 169h-31v-121c0-29-5-50-35-48C34-165 62-65 56 0H25l-1-190h30c1 10-1 24 2 32 10-44 99-50 107 0 11-21 27-35 58-36 85-2 47 119 55 194h-31v-121c0-29-5-49-35-48" id="bF"/><path d="M24-231v-30h32v30H24zM24 0v-190h32V0H24" id="bG"/><path d="M24 0v-261h32V0H24" id="bH"/><g id="O"><use transform="matrix(0.05,0,0,0.05,0,0)" xlink:href="#bE"/><use transform="matrix(0.05,0,0,0.05,12,0)" xlink:href="#bF"/><use transform="matrix(0.05,0,0,0.05,26.950000000000003,0)" xlink:href="#bG"/><use transform="matrix(0.05,0,0,0.05,30.900000000000002,0)" xlink:href="#bH"/></g><path d="M266 0h-40l-56-210L115 0H75L2-248h35L96-30l15-64 43-154h32l59 218 59-218h35" id="bI"/><path d="M9 0v-24l116-142H16v-24h144v24L44-24h123V0H9zm58-211c8-23 27-35 38-54h36v5l-58 49H67" id="bJ"/><path d="M117-194c89-4 53 116 60 194h-32v-121c0-31-8-49-39-48C34-167 62-67 57 0H25l-1-190h30c1 10-1 24 2 32 11-22 29-35 61-36" id="bK"/><path d="M143 0L79-87 56-68V0H24v-261h32v163l83-92h37l-77 82L181 0h-38" id="bL"/><g id="P"><use transform="matrix(0.05,0,0,0.05,0,0)" xlink:href="#bI"/><use transform="matrix(0.05,0,0,0.05,16.599999999999998,0)" xlink:href="#bo"/><use transform="matrix(0.05,0,0,0.05,26.599999999999994,0)" xlink:href="#bJ"/><use transform="matrix(0.05,0,0,0.05,35.599999999999994,0)" xlink:href="#bK"/><use transform="matrix(0.05,0,0,0.05,45.599999999999994,0)" xlink:href="#bG"/><use transform="matrix(0.05,0,0,0.05,49.55,0)" xlink:href="#bi"/><use transform="matrix(0.05,0,0,0.05,59.54999999999999,0)" xlink:href="#bL"/></g><path d="M703-1476c426 0 599 333 586 795-11 408-187 701-584 701-422 0-587-333-587-793 0-282 106-507 280-617 89-56 190-86 305-86zm2 1333c312 0 393-279 393-632 0-308-116-536-395-536-269 0-394 232-394 523v107c-4 298 123 538 396 538" id="bM"/><path d="M525-543H37v-151h488v151" id="bN"/><g id="Q"><use transform="matrix(0.0087890625,0,0,0.0087890625,0,0)" xlink:href="#bM"/><use transform="matrix(0.0087890625,0,0,0.0087890625,12.375,0)" xlink:href="#as"/><use transform="matrix(0.0087890625,0,0,0.0087890625,20.9794921875,0)" xlink:href="#ad"/><use transform="matrix(0.0087890625,0,0,0.0087890625,30.515625,0)" xlink:href="#Z"/><use transform="matrix(0.0087890625,0,0,0.0087890625,36.6064453125,0)" xlink:href="#bN"/><use transform="matrix(0.0087890625,0,0,0.0087890625,41.572265625,0)" xlink:href="#ai"/><use transform="matrix(0.0087890625,0,0,0.0087890625,47.4521484375,0)" xlink:href="#bx"/><use transform="matrix(0.0087890625,0,0,0.0087890625,57.3662109375,0)" xlink:href="#ad"/><use transform="matrix(0.0087890625,0,0,0.0087890625,66.90234375,0)" xlink:href="#bN"/><use transform="matrix(0.0087890625,0,0,0.0087890625,71.8681640625,0)" xlink:href="#aa"/><use transform="matrix(0.0087890625,0,0,0.0087890625,81.6591796875,0)" xlink:href="#ao"/><use transform="matrix(0.0087890625,0,0,0.0087890625,86.02734375,0)" xlink:href="#Z"/></g><g id="R"><use transform="matrix(0.0087890625,0,0,0.0087890625,0,0)" xlink:href="#an"/><use transform="matrix(0.0087890625,0,0,0.0087890625,9.9228515625,0)" xlink:href="#ae"/><use transform="matrix(0.0087890625,0,0,0.0087890625,20.021484375,0)" xlink:href="#ab"/><use transform="matrix(0.0087890625,0,0,0.0087890625,30.1728515625,0)" xlink:href="#aa"/><use transform="matrix(0.0087890625,0,0,0.0087890625,39.9638671875,0)" xlink:href="#ai"/><use transform="matrix(0.0087890625,0,0,0.0087890625,45.84375,0)" xlink:href="#ad"/></g><path d="M212-179c-10-28-35-45-73-45-59 0-87 40-87 99 0 60 29 101 89 101 43 0 62-24 78-52l27 14C228-24 195 4 139 4 59 4 22-46 18-125c-6-104 99-153 187-111 19 9 31 26 39 46" id="bO"/><g id="S"><use transform="matrix(0.05,0,0,0.05,0,0)" xlink:href="#bO"/><use transform="matrix(0.05,0,0,0.05,12.950000000000001,0)" xlink:href="#bo"/><use transform="matrix(0.05,0,0,0.05,22.950000000000003,0)" xlink:href="#bF"/><use transform="matrix(0.05,0,0,0.05,37.900000000000006,0)" xlink:href="#bF"/><use transform="matrix(0.05,0,0,0.05,52.85,0)" xlink:href="#bo"/><use transform="matrix(0.05,0,0,0.05,62.85,0)" xlink:href="#bK"/></g><path d="M87 75C49 33 22-17 22-94c0-76 28-126 65-167h31c-38 41-64 92-64 168S80 34 118 75H87" id="bP"/><path d="M205 0l-28-72H64L36 0H1l101-248h38L239 0h-34zm-38-99l-47-123c-12 45-31 82-46 123h93" id="bQ"/><path d="M33 0v-248h34V0H33" id="bR"/><path d="M33-261c38 41 65 92 65 168S71 34 33 75H2C39 34 66-17 66-93S39-220 2-261h31" id="bS"/><g id="T"><use transform="matrix(0.05,0,0,0.05,0,0)" xlink:href="#bP"/><use transform="matrix(0.05,0,0,0.05,5.95,0)" xlink:href="#bQ"/><use transform="matrix(0.05,0,0,0.05,17.95,0)" xlink:href="#bq"/><use transform="matrix(0.05,0,0,0.05,29.950000000000003,0)" xlink:href="#bR"/><use transform="matrix(0.05,0,0,0.05,34.95,0)" xlink:href="#bS"/></g><path d="M96-169c-40 0-48 33-48 73s9 75 48 75c24 0 41-14 43-38l32 2c-6 37-31 61-74 61-59 0-76-41-82-99-10-93 101-131 147-64 4 7 5 14 7 22l-32 3c-4-21-16-35-41-35" id="bT"/><g id="U"><use transform="matrix(0.05,0,0,0.05,0,0)" xlink:href="#bQ"/><use transform="matrix(0.05,0,0,0.05,12,0)" xlink:href="#bT"/><use transform="matrix(0.05,0,0,0.05,21,0)" xlink:href="#bT"/><use transform="matrix(0.05,0,0,0.05,30,0)" xlink:href="#bm"/><use transform="matrix(0.05,0,0,0.05,40,0)" xlink:href="#bl"/><use transform="matrix(0.05,0,0,0.05,49,0)" xlink:href="#bl"/></g><g id="V"><use transform="matrix(0.05,0,0,0.05,0,0)" xlink:href="#bO"/><use transform="matrix(0.05,0,0,0.05,12.950000000000001,0)" xlink:href="#bo"/><use transform="matrix(0.05,0,0,0.05,22.950000000000003,0)" xlink:href="#bK"/><use transform="matrix(0.05,0,0,0.05,32.95,0)" xlink:href="#bj"/><use transform="matrix(0.05,0,0,0.05,37.95,0)" xlink:href="#bp"/><use transform="matrix(0.05,0,0,0.05,43.900000000000006,0)" xlink:href="#bo"/><use transform="matrix(0.05,0,0,0.05,53.900000000000006,0)" xlink:href="#bH"/></g><path d="M143 4C61 4 22-44 18-125c-5-107 100-154 193-111 17 8 29 25 37 43l-32 9c-13-25-37-40-76-40-61 0-88 39-88 99 0 61 29 100 91 101 35 0 62-11 79-27v-45h-74v-28h105v86C228-13 192 4 143 4" id="bU"/><g id="W"><use transform="matrix(0.05,0,0,0.05,0,0)" xlink:href="#bU"/><use transform="matrix(0.05,0,0,0.05,14,0)" xlink:href="#bG"/><use transform="matrix(0.05,0,0,0.05,17.95,0)" xlink:href="#bj"/></g><path d="M115-194c55 1 70 41 70 98S169 2 115 4C84 4 66-9 55-30l1 105H24l-1-265h31l2 30c10-21 28-34 59-34zm-8 174c40 0 45-34 45-75s-6-73-45-74c-42 0-51 32-51 76 0 43 10 73 51 73" id="bV"/><path d="M179-190L93 31C79 59 56 82 12 73V49c39 6 53-20 64-50L1-190h34L92-34l54-156h33" id="bW"/><g id="X"><use transform="matrix(0.05,0,0,0.05,0,0)" xlink:href="#bp"/><use transform="matrix(0.05,0,0,0.05,5.95,0)" xlink:href="#bm"/><use transform="matrix(0.05,0,0,0.05,15.949999999999998,0)" xlink:href="#bV"/><use transform="matrix(0.05,0,0,0.05,25.950000000000003,0)" xlink:href="#bo"/><use transform="matrix(0.05,0,0,0.05,35.95,0)" xlink:href="#bl"/><use transform="matrix(0.05,0,0,0.05,44.95,0)" xlink:href="#bG"/><use transform="matrix(0.05,0,0,0.05,48.900000000000006,0)" xlink:href="#bj"/><use transform="matrix(0.05,0,0,0.05,53.900000000000006,0)" xlink:href="#bo"/><use transform="matrix(0.05,0,0,0.05,63.900000000000006,0)" xlink:href="#bp"/><use transform="matrix(0.05,0,0,0.05,69.85000000000001,0)" xlink:href="#bW"/></g></defs></g></svg>